<?xml version="1.0" standalone="no"?><!DOCTYPE svg PUBLIC "-//W3C//DTD SVG 1.1//EN"
  "http://www.w3.org/Graphics/SVG/1.1/DTD/svg11.dtd">
<svg viewBox="0 0 1024 1024" version="1.1" xmlns="http://www.w3.org/2000/svg"
     xmlns:xlink="http://www.w3.org/1999/xlink" width="20" height="20">
  <path
    d="M659.77344 386.92864l-91.63776 29.9264-79.79008 35.12832-22.28736 5.888a322.5088 322.5088 0 0 1-18.19136 16.32256 812.51328 812.51328 0 0 1-18.6368 15.65184c-5.6832 4.52096-13.8752 12.68224-18.19648 17.89952-6.3488 7.93088-11.3664 16.32256-13.40416 22.66112-3.88096 11.56096-2.048 23.3472 5.45792 34.23232 9.31328 13.824 28.19072 27.88352 50.0224 37.39648 11.13088 4.98688 30.0032 11.10016 44.1088 14.74048 23.40864 5.888 68.87936 12.45696 93.88544 13.37856 5.00224 0.21504 11.8272 0.21504 12.05248 0 0.45568-0.47104 4.54656-7.72096 8.86784-17.01888 15.46752-31.27808 26.368-60.73344 32.512-85.67296 3.6352-15.1808 6.36416-35.35872 8.41216-59.392 0.45568-6.79936 0.68096-29.2352 0.2304-36.7104a303.22176 303.22176 0 0 0-3.41504-32.41984c-0.22528-1.36192-0.45056-2.7136-0.22528-2.7136 0.22528-0.2304 1.13664-0.45568 12.50816-3.62496l-2.27328-5.67296z m-20.92544 12.2368c0.91136 0 2.95936 21.31456 3.64032 34.67776 0.22528 2.72896 0 4.7616 0 4.7616-0.45568 0-11.58656-6.56384-19.77344-11.55584a587.89376 587.89376 0 0 1-22.06208-14.73024c-0.6656-0.45568-0.6656-0.45568 5.00736-2.50368 9.5488-3.39456 32.2816-10.6496 33.18784-10.6496z m-46.8224 15.4112c0.67072 0 2.27328 0.91136 6.12864 3.1744 14.31552 8.84224 33.64352 19.71712 42.0608 23.35744 2.49856 1.1264 2.72896 0.6656-2.944 4.75136-12.50816 8.61184-28.42624 16.9984-47.53408 25.39008-2.06848 1.01888-4.18816 1.92512-6.35392 2.7136-0.22528 0 0.2304-1.80224 0.91136-3.85024 4.54656-17.21856 7.26528-34.67776 7.49056-48.512-0.45568-7.01952-0.45568-7.01952 0.2304-7.01952h0.01024z m-9.5488 3.63008c0.45056 0.45568 0.22528 15.86688-0.45568 20.1728a170.29632 170.29632 0 0 1-6.36928 30.1568c-0.68096 2.48832-1.36704 4.74624-1.60768 4.74624-0.20992 0.45568-9.76384-8.82688-12.94848-12.45696a90.39872 90.39872 0 0 1-12.73344-18.59072c-1.59232-3.1744-4.096-9.28768-3.8656-9.28768 1.13664-0.90624 37.74976-14.97088 37.98016-14.7456z m-45.24544 17.68448c0.45568 0.22528 0.90624 1.35168 1.13664 2.48832 2.27328 6.12864 7.26528 14.95552 11.58656 20.4032 4.77184 6.12352 10.91584 12.92288 15.91808 17.2288 1.59232 1.35168 3.18464 2.7136 3.40992 2.944 0.45568 0.45568 0.45568 0.45568-10.68544 4.53632a861.32736 861.32736 0 0 1-43.65312 15.1808c-3.8656 1.36704-7.7312 2.50368-11.60192 3.85536-0.6656 0.22528-0.45056-0.2304 1.36704-2.944 8.18688-12.6976 20.46976-37.40672 27.2896-55.07584 1.13664-2.944 2.27328-6.12864 2.50368-6.8096 0.22528-0.896 0.6656-1.35168 1.59232-1.80736 0.45056 0.22528 0.90624 0 1.13664 0z m-13.8752 5.6576c0.2304 0.2304-3.40992 7.49568-6.81984 14.2848a578.49344 578.49344 0 0 1-23.86944 41.472c-1.60256 2.73408-3.18464 5.2224-3.40992 5.44768-0.45568 0.4608-0.45568 0.4608-1.60768-1.80736a60.7744 60.7744 0 0 1-5.21728-16.09216c-1.13664-5.44256-0.90624-14.7456 0.4608-20.62848 0.90624-4.30592 0.90624-4.30592 2.93888-5.21728 8.42752-4.30592 37.05856-17.68448 37.52448-17.4592z m119.35744 4.992v2.944c0 15.42144-1.59232 36.49536-4.09088 51.90656-0.45568 2.72896-0.67072 4.98688-0.91136 4.98688 0 0-2.048-0.45056-4.32128-1.13664a168.01792 168.01792 0 0 1-31.82592-13.58848c-6.81984-3.63008-16.5888-9.7536-16.13312-9.984l6.35392-3.39456a418.95936 418.95936 0 0 0 37.98016-22.21056 175.59552 175.59552 0 0 0 12.04224-8.61184l0.90624-0.91136zM471.07584 466.944c0.21504 0 0.21504 0.45056-0.24064 2.93888-0.22528 1.82272-0.6656 5.2224-0.6656 7.49568-0.47104 9.96352 1.12128 17.44384 6.12352 27.648 1.36704 2.7136 2.50368 5.2224 2.50368 5.2224-0.4608 0.44032-46.3872 13.81888-60.71296 17.65888-4.32128 1.14688-7.95648 2.27328-8.41216 2.27328-0.44032 0.22528-0.44032 0-0.44032-1.1264 1.57696-10.20416 9.30816-23.35744 20.224-34.688 7.28064-7.4752 12.96384-11.776 22.74304-17.44384 7.04-3.6352 17.72544-9.7536 18.86208-9.984-0.22528 0-0.22528 0 0 0h0.01536z m107.98592 19.26144s1.82272 0.91136 3.64032 2.048c14.7712 8.61696 35.45088 16.54784 52.97664 20.62848l1.57696 0.44032-2.27328 1.13664c-9.30816 5.21728-39.55712 17.6896-70.4768 29.24544-4.54656 1.57696-8.86784 3.39968-9.76384 3.62496-0.9216 0.45568-1.60768 0.45568-1.60768 0.45568s1.14176-2.50368 2.72896-5.44256c8.64256-16.09728 17.28512-35.8144 21.8368-49.408a24.7808 24.7808 0 0 0 1.36192-2.72896z m-10.91584 3.62496s-0.45568 1.59232-1.13664 3.18464a450.93376 450.93376 0 0 1-24.10496 48.26624c-2.48832 4.55168-4.76672 8.16128-4.76672 8.16128s-2.04288-1.12128-4.54656-2.7136c-14.78144-9.07264-27.7504-19.93216-36.1472-30.8224l-1.13664-1.59232 6.35392-1.80736c22.51776-6.12864 41.83552-12.70784 60.93824-20.86912 2.048-0.896 4.32128-1.80736 4.54656-1.80736z m68.4288 23.81312c0 1.57696-3.40992 15.85152-6.35392 26.0608-2.50368 8.61696-4.54656 15.4112-8.42752 27.42272-1.58208 5.2224-3.16928 9.52832-3.16928 9.52832s-0.45568 0-0.91136-0.2304c-20.46976-3.62496-39.10656-8.84224-56.38656-15.86176-4.77696-2.048-11.8272-4.992-12.28288-5.44768-0.2304-0.22528 4.09088-2.03264 9.32352-4.30592 31.60064-13.81888 64.12288-29.24544 75.47904-36.03968 1.36704-0.67072 2.50368-1.13664 2.72896-1.13664v0.01024z m-158.0032 5.43232c0.22528 0.22528-8.64768 12.6976-20.92544 29.9264a1724.672 1724.672 0 0 1-11.13088 15.63648c-1.82272 2.71872-4.77696 6.79936-6.36928 9.28768l-2.95424 4.54656-3.18464-2.72896a118.13888 118.13888 0 0 1-12.96384-13.14816c-5.9136-7.48032-10.0096-15.18592-11.58656-22.21056-0.68096-3.39456-0.68096-4.98688 0-5.21728 12.288-2.82624 24.56064-5.69856 36.82816-8.61184 9.53856-2.2784 20.6848-4.76672 24.7808-5.888a195.2768 195.2768 0 0 1 7.49056-1.59232h0.01024z m8.86784 3.39968l2.27328 2.49856a133.52448 133.52448 0 0 0 32.50688 26.51648c2.27328 1.13664 3.8656 2.27328 3.64032 2.48832-0.45568 0.45568-42.74176 15.4112-62.53056 21.99552-10.9056 3.85024-19.99872 7.01952-20.224 7.01952l-1.36704-0.90624-1.13664-0.91136 2.048-2.944c6.59456-9.28256 14.76608-19.71712 32.50688-41.03168l12.28288-14.71488v-0.01024z m55.24992 39.43424s3.16928 1.14176 6.81984 2.50368c9.09824 3.39968 16.13824 5.43232 25.68704 7.936 11.81184 2.93888 28.87168 5.88288 38.87616 6.79424 1.59232 0.22528 2.27328 0.22528 2.048 0.45568-0.45568 0.22528-10.69056 3.62496-18.19648 6.11328a4324.9408 4324.9408 0 0 1-77.9776 22.90176c-5.45792 1.57696-10.23488 2.944-10.46016 2.944-0.67072 0.22528-2.944-0.45568-2.944-0.67072 0-0.24064 1.57696-2.27328 3.62496-4.54656a438.21056 438.21056 0 0 0 28.20096-37.62176c1.29536-2.3552 2.73408-4.62848 4.30592-6.8096h0.01536z m-12.28288 0.2304s-4.77696 7.93088-13.41952 21.53984c-3.6352 5.6576-7.7312 12.2368-9.3184 14.49984-1.36704 2.27328-3.41504 5.67296-4.5568 7.7056l-2.04288 3.62496-1.13664-0.22528c-8.2432-2.68288-16.4352-5.55008-24.5504-8.6016-5.6832-2.2784-11.5968-4.992-16.14336-7.49568-5.44768-2.93888-12.4928-7.4752-11.81696-7.4752 0.2304 0 9.53856-2.71872 21.14048-5.6576 30.2336-8.16128 47.06304-12.928 58.19392-16.55296 1.83296-0.90624 3.65056-1.36192 3.65056-1.36192z m86.15424 20.1728c0.47104 0.68096-10.90048 31.73376-14.98112 41.472-0.92672 2.27328-1.152 2.72896-1.83296 2.72896-1.13664 0-17.50016-2.27328-27.29472-3.85024-17.2544-2.71872-46.15168-7.7056-53.41696-9.29792l-1.59232-0.44544 10.23488-2.27328c22.27712-4.98688 32.73728-7.7056 43.65312-10.87488a300.1856 300.1856 0 0 0 40.69376-15.65184c2.2784-0.896 4.096-1.80736 4.55168-1.80736h-0.01536z m-51.36896-408.22784c-1.59232-0.2304-26.14272 8.61696-42.0608 14.97088-21.38112 8.6016-37.96992 16.98816-48.2048 24.25344-3.8656 2.7136-8.63744 7.4752-9.3184 9.28256-0.26624 0.73216-0.41984 1.50016-0.4608 2.27328l9.32864 8.832 22.05696 7.03488 52.51072 9.28768 60.02688 10.20416 0.68096-5.21728h-0.45568l-7.95648-1.13664-1.59232-2.7136a510.01344 510.01344 0 0 1-22.5024-44.20096 210.24256 210.24256 0 0 1-10.0096-27.88352c-1.13664-4.7616-1.36192-4.98688-2.04288-4.98688z m-1.13664 3.39456c0.22528 0 0.45056 2.048 0.68096 4.31104 1.13664 9.7536 3.40992 19.0464 6.81984 29.0304 2.50368 7.69024 2.50368 7.23456-0.45056 6.33856-7.05024-2.048-38.66624-7.49056-61.6192-10.65984-3.64032-0.45568-6.82496-0.91136-6.82496-1.13664-0.22528-0.21504 16.60416-9.0624 23.87968-12.45696 9.53856-4.30592 35.69152-14.97088 37.49888-15.42656h0.01536z m-66.83648 31.06816l2.7136 0.896c14.78144 4.98688 51.61472 12.01152 72.07936 13.60384l4.32128 0.45568s-1.8176 1.13664-4.32128 2.27328c-9.76384 4.97664-20.69504 10.87488-28.20096 15.62624-2.27328 1.36192-4.30592 2.50368-4.54656 2.50368-0.21504 0-1.80736-0.2304-3.16928-0.4608l-2.72896-0.45056-6.82496-6.79936c-12.28288-11.78112-21.83168-20.85376-25.472-24.47872l-3.85024-3.1744z m-2.72896 2.03264l9.76384 12.2368c5.23264 6.79936 10.7008 13.1584 11.8272 14.73024 1.13664 1.36704 2.048 2.72896 2.048 2.72896-0.2304 0.2304-14.1056-2.49856-21.36576-4.08064-7.50592-1.8176-10.7008-2.49856-15.25248-4.07552l-3.85024-1.13664v-0.91136c0-4.53632 5.90848-11.56096 15.91808-18.5856l0.91136-0.90624z m82.97984 16.54784c0.2304 0 0.67072 0.6656 1.36704 2.48832 2.27328 5.21728 9.76384 19.0464 11.58656 21.76512 0.45056 0.91136 1.60256 0.91136-8.17664-0.6656-23.40864-3.87072-30.92992-5.00736-30.92992-5.2224 0 0 0.68096-0.45056 1.60768-1.13664a145.83296 145.83296 0 0 0 21.13536-14.5152c1.59232-1.35168 2.944-2.48832 3.40992-2.7136z"
    fill="#909CA9"></path>
  <path
    d="M466.05824 221.45536s-1.5872 2.50368 0 6.12864c0.91136 2.27328 3.6352 4.98688 6.59456 7.7056 0 0 30.91968 29.9264 34.56 34.22208 17.05472 19.73248 24.56064 38.99392 25.2416 65.5104 0.45568 17.2288-2.72896 32.18944-10.91584 49.63328-14.31552 31.28832-44.78976 65.96608-91.62752 104.27904l6.82496-2.27328c4.32128-3.39968 10.46016-6.79424 24.54528-14.49984 32.75264-17.91488 69.35552-34.23744 114.37056-50.9952 64.78848-24.25856 171.42784-52.81792 232.13568-62.11584l6.35392-0.91136-0.91136-1.57696a195.93728 195.93728 0 0 0-13.85984-19.49184c-13.18912-16.54784-29.3376-29.696-49.11104-40.8064-27.06432-15.1808-62.30016-26.96704-106.85952-35.80928-8.41728-1.59232-26.82368-4.7616-41.83552-7.04a4917.4272 4917.4272 0 0 1-74.79808-12.22656 562.8928 562.8928 0 0 1-28.20096-5.21728c-4.07552-0.91136-12.03712-2.7136-18.4064-4.98688-5.45792-1.59232-12.50816-3.62496-14.10048-9.5232z m17.9712 17.4592s1.13152 0.45568 2.72384 0.91136c2.72896 0.90624 6.144 2.03264 10.0096 2.944 2.944 0.90624 6.12352 1.5872 9.09312 2.49856 4.08064 1.1264 7.72096 2.03264 7.72096 2.03264 0.45568 0.4608 7.50592 22.8864 9.76896 31.2832 0.9216 3.16416 1.60256 6.12352 1.60256 6.12352s-0.91136-1.13664-1.8176-2.72896c-8.18688-14.27456-20.92544-28.56448-35.69152-40.3456-2.048-1.58208-3.41504-2.71872-3.41504-2.71872z m34.10944 9.29792c0.44032 0 1.80736 0.22528 3.62496 0.6656 11.8272 2.73408 32.96256 6.58432 46.38208 8.84736 2.27328 0.45568 4.096 0.68096 4.096 0.90624 0 0.2304-0.91136 0.68608-1.82272 1.13664-2.27328 1.14176-11.5968 6.56896-14.55616 8.61696-7.7312 5.2224-14.5408 10.6496-19.54304 15.6416l-3.64032 3.6096s-0.45056-1.1264-0.68096-2.70336a219.1872 219.1872 0 0 0-12.50816-33.77664c-0.91136-1.36704-1.59232-2.944-1.36192-2.944-0.2304 0-0.2304 0 0 0h0.01024z m59.78624 11.33056c0.45568 0.22528 1.13664 2.48832 2.50368 7.7056 2.50368 10.38336 3.65056 21.05344 3.40992 31.73376-0.22528 2.944-0.22528 5.67296-0.45568 5.888l-0.22528 0.68096-3.64032-1.1264c-7.50592-2.27328-19.5584-5.888-29.79328-8.84224-5.9136-1.5872-10.6752-2.944-10.6752-3.1744 0-0.45056 8.6272-9.0624 12.26752-12.2368 7.05024-6.12864 26.15296-20.85376 26.60864-20.62848z m4.77696 0.6656c0.22528-0.20992 28.64128 4.77696 41.60512 7.2704 9.53856 1.8176 23.63904 4.7616 24.5504 5.21728 0.45568 0.22528-1.13664 0.896-5.68832 2.93888-18.19136 8.16128-31.82592 15.6416-45.47072 24.48384-3.64032 2.27328-6.59456 4.30592-6.59456 4.30592s-0.2304-2.048-0.2304-4.30592c0-12.91264-2.54464-25.7024-7.49056-37.632-0.22528-1.13664-0.68096-2.03264-0.68096-2.27328z m73.66144 14.52032c0.22528 0.22528-0.68608 5.888-1.59232 9.06752-2.50368 10.19392-9.32864 25.60512-17.51552 39.89504-0.8704 1.65376-1.85344 3.24608-2.944 4.7616-0.24064 0-2.05824-0.91136-4.09088-2.27328-7.9616-4.7616-17.28512-9.0624-27.06432-13.13792-2.72896-1.13664-5.21728-2.048-5.21728-2.27328-0.46592-0.45568 21.80608-15.18592 33.63328-22.21056 9.32352-5.66784 24.56064-14.04416 24.79104-13.82912z m5.21728 0.90624c0.6912 0 13.19936 3.39968 19.79904 5.44768 16.3584 4.74624 35.01056 11.55584 47.04768 17.21856l5.00224 2.27328-3.6352 0.896c-29.78304 6.8096-55.25504 14.7456-79.80032 24.70912-2.048 0.91136-3.8656 1.5872-3.8656 1.5872-0.2304 0 0.45056-1.5872 1.36192-3.61984 7.50592-15.65184 12.28288-31.9744 13.41952-46.02368 0.26624-0.8192 0.49152-1.64352 0.67072-2.48832z m-125.48608 28.78976c0.22528-0.22528 9.76384 2.03776 14.99648 3.61472 7.95648 2.27328 24.56064 7.71584 24.56064 8.16128l-4.096 3.6352a440.5504 440.5504 0 0 0-28.20096 25.60512c-3.16928 2.944-5.66784 5.44768-5.89824 5.44768-0.22528 0-0.22528-0.45568-0.22528-0.91136 1.59232-11.55584 1.13664-26.51648-0.91136-41.69728 0-2.27328-0.22528-3.85536-0.22528-3.85536z m202.3424 0.2304c0.22528 0.22528-4.55168 7.24992-7.28064 11.33056-4.09088 5.888-10.23488 13.81888-24.09472 31.04768-7.27552 9.07264-15.4624 19.49184-18.19136 22.89152-2.72896 3.39968-5.00224 6.35392-5.21728 6.35392 0 0-0.9216-1.13664-2.06336-2.72896a143.8464 143.8464 0 0 0-27.96032-30.8224 37.43744 37.43744 0 0 0-5.21728-4.08064 11.20256 11.20256 0 0 1-1.37728-1.13664c0-0.22528 11.8272-5.21728 20.69504-8.832a671.872 671.872 0 0 1 52.97664-18.82112c8.63232-2.944 17.73056-5.4272 17.73056-5.21728v0.01536z m5.45792 1.35168c0.22528 0 2.04288 0.68096 3.8656 2.048a231.2192 231.2192 0 0 1 46.38208 34.67264c3.6352 3.62496 12.73344 12.92288 12.50816 13.15328 0 0-3.18464 0.22528-6.82496 0.45056-29.11232 2.27328-66.39616 8.39168-102.31296 16.99328-2.50368 0.45056-4.55168 1.13664-4.77696 1.13664-0.22528 0 2.50368-2.7136 5.9136-5.888 21.13536-20.1728 30.68928-33.09568 42.0608-55.7568 1.59232-3.85536 2.95424-6.58432 3.18464-6.8096-0.2304 0-0.2304 0 0 0z m-154.38336 15.65184c0.91136 0.20992 10.00448 4.52096 16.82944 7.69024l16.14848 8.38656s-3.18464 1.82272-7.28064 3.85536a602.32704 602.32704 0 0 0-35.9168 19.71712c-2.048 1.2288-4.096 2.43712-6.15424 3.64032-0.21504 0-0.21504-0.22528 1.60256-3.6352 6.144-11.33568 11.14624-24.92416 14.09024-38.07744 0.22528-0.91136 0.45056-1.5872 0.68096-1.5872v0.01024z m-8.8576 1.80224c0.2304 0.2304-2.048 8.61696-3.64032 13.37856-2.72896 8.832-7.7312 19.72224-12.27776 28.09344-1.13664 2.048-2.72896 4.7616-3.64032 6.35904l-1.8176 2.7136-3.8656-3.61472a54.2208 54.2208 0 0 0-12.9536-9.5232c-1.8176-0.91136-3.40992-1.8176-3.40992-2.048 0-0.45056 11.81184-11.33056 20.91008-19.03616 6.59456-5.67296 20.46976-16.54784 20.69504-16.32256z m55.00928 22.43584l3.41504 2.27328c7.7312 4.992 16.82944 11.776 23.87968 17.67424 3.8656 3.18464 11.5968 9.984 13.17376 11.78624l0.91136 0.91136-5.67296 1.5872a1066.53696 1066.53696 0 0 0-84.81792 26.97216c-2.01216 0.76288-4.05504 1.44384-6.12352 2.048-0.45568 0-0.68608 0.44032 6.36416-6.12864 18.19648-16.77312 34.56-35.35872 46.59712-53.26848l2.27328-3.85536z m-14.5408 3.62496c0.2304 0.2304-9.32352 13.37856-15.01184 21.08416a973.03552 973.03552 0 0 1-27.04896 33.78176c-3.40992 4.08064-6.36928 7.4752-6.59456 7.4752-0.22528 0-0.22528-0.90624-0.22528-2.49856a56.59648 56.59648 0 0 0-5.9136-24.92416c-1.59232-3.18464-1.82272-3.85024-1.59232-4.30592 1.36192-1.14176 21.376-12.6976 34.3296-19.49184 8.41216-4.55168 21.83168-11.34592 22.05696-11.10528v-0.01536z m-87.53152 21.31456c0.22528 0 1.8176 0.90624 3.64032 1.8176a96.8704 96.8704 0 0 1 11.81184 7.936c0.22528 0.22528-1.59232 1.57696-4.096 3.39456-6.5792 4.7616-16.5888 12.2368-22.272 16.77824-6.13888 4.74624-6.36928 4.97664-5.68832 3.85024 4.55168-7.03488 6.82496-10.89024 9.32864-15.86688 2.04288-4.54656 4.32128-9.7536 5.9136-14.5152 0.45056-1.80224 1.13664-3.39456 1.36192-3.39456z m23.41376 18.36544c0.45056 0 0.68096 0.44032 2.72896 3.39968 3.8656 5.888 7.05024 13.81888 7.7312 20.1728l0.22528 1.35168-9.5488 3.62496a846.78656 846.78656 0 0 0-43.19744 17.91488c-2.944 1.36192-8.192 3.85024-11.60192 5.44256-3.40992 1.80736-6.12352 2.944-6.12352 2.944s2.03264-1.5872 4.7616-3.62496c20.69504-14.97088 38.66112-31.50336 52.06528-47.82592 1.36704-1.82272 2.72896-3.39968 2.95936-3.39968z m-10.69056 2.48832c0.22528 0.2304-7.72096 9.29792-12.94848 14.73024a235.89888 235.89888 0 0 1-42.97216 34.688c-2.048 1.35168-3.88096 2.48832-4.096 2.7136-0.45056 0.2304 0.2304-0.45056 7.28064-8.15616a339.03104 339.03104 0 0 0 12.04224-14.04928c1.86368-2.58048 4.1728-4.8128 6.81984-6.5792 10.00448-7.7056 33.41824-23.57248 33.87392-23.3472z"
    fill="#EE352C"></path>
  <path
    d="M246.20544 677.73952c-1.36704 0-2.50368 0.22528-3.8656 0.22528-25.91232 1.36704-43.19744 12.70784-53.43232 34.9184-8.6272 19.93216-7.72096 46.2336 0 66.18112 9.09824 19.71712 23.87968 30.14144 48.43008 33.99168 5.22752 0.91136 8.64256 3.64032 18.87232 15.42656l12.50816 14.49984h22.5024l-14.99648-14.95552c-8.18688-8.16128-15.00672-15.4112-15.00672-16.09216 0-0.68608 3.18464-2.048 7.05024-3.1744 12.71808-3.85024 23.18336-13.60384 30.464-28.55936 5.90848-12.01664 6.81984-15.65184 7.7312-30.60736 2.27328-44.416-21.14048-72.08448-60.25728-71.84384v-0.01024z m19.78368 116.05504c-10.91584 5.21728-26.83392 6.35392-37.28384 2.49856-10.7008-3.85024-21.1456-14.97088-25.92256-27.65312-5.2224-13.82912-4.55168-39.22432 1.60256-50.55488 9.53856-18.1248 22.272-26.51648 40.68352-26.51648 27.2896 0 42.96704 16.77824 45.01504 48.05632 1.60768 26.28608-7.27552 46.01856-24.09472 54.17984v-0.01024z m389.00736-78.19776c-9.55392 0-16.5888 3.85536-21.6064 11.33056l-3.85024 5.888v-15.4112h-16.37888v92.70784h16.37888v-29.696c0-27.19744 0.22528-30.37184 4.08064-37.62176 5.22752-10.19392 14.32576-15.1808 22.96832-12.92288l5.9136 1.59232v-16.10752l-7.50592 0.2304v0.01024z m-95.9488-0.90624c-3.18464 0-6.59456 0.45056-10.00448 1.13664-21.82144 5.6576-34.0992 26.51136-33.41824 48.0512 0 17.89952 3.40992 26.97216 12.28288 36.49536 17.72544 14.49984 33.8688 15.6416 55.7056 7.936l7.71584-3.39968v-14.5152l-7.71584 4.08064c-17.51552 7.7056-30.92992 7.7056-41.60512-1.36704-6.82496-6.79424-9.7792-15.1808-11.14624-24.47872h65.92512v-12.45696c0-25.62048-15.45216-41.71264-37.72416-41.472l-0.01536-0.01024z m-26.59328 40.80128s2.50368-15.86688 11.37152-22.21056a25.51808 25.51808 0 0 1 14.31552-4.54656c5.00224 0 9.76384 1.60768 13.87008 4.7616 8.18688 6.35392 9.76896 21.99552 9.76896 21.99552h-49.32608z m-394.25024-16.77824c-17.72544-10.6496-25.68704-18.3552-24.54528-27.42272 2.72384-25.14944 33.8688-21.76512 51.15392-12.24192l0.2304-16.98816s-9.55392-4.096-23.18848-4.32128c-20.92032-0.2304-34.56512 6.5792-40.9344 20.62848-9.31328 20.62848-1.13664 36.26496 28.88192 53.49888 16.8192 9.73824 24.32 18.1248 24.32 27.42272 0 19.03616-22.95296 25.62048-46.8224 13.81888-5.0176-2.48832-9.09312-4.52096-9.3184-4.52096-0.91136 5.43232-0.4608 18.3552-0.4608 18.3552s7.2704 2.944 18.19648 5.21728c27.27936 5.43232 51.82464-7.24992 54.31296-27.8784 1.83296-19.49184-5.21728-29.70112-31.81056-45.568h-0.01536z m661.62176-24.02304c-3.18464 0-6.59456 0.45056-10.00448 1.13664-21.8368 5.6576-34.11456 26.51136-33.41824 48.0512 0 17.89952 3.40992 26.97216 12.26752 36.25472 17.73568 14.5152 33.88416 15.88224 55.93088 7.94624l7.7312-3.39968v-14.5152l-7.7312 4.08064c-17.72544 7.7056-30.91456 7.7056-41.60512-1.35168-6.81984-6.80448-9.76384-14.96576-11.14112-24.47872h65.71008v-12.4672c0-25.62048-15.4624-41.71264-37.73952-41.25696z m-26.83392 40.57088s2.49856-15.86176 11.37152-22.20544a23.67488 23.67488 0 0 1 14.10048-4.54656c4.77184 0 9.76384 1.60256 13.85984 4.7616 8.18688 6.35392 9.7792 21.9904 9.7792 21.9904h-49.11104z m-299.65312-16.31744c-17.7408-10.6496-25.46176-18.3552-24.5504-27.42784 2.72896-25.14944 33.87392-21.76512 51.14368-12.24192l0.22528-16.98816s-9.53856-4.09088-23.18336-4.32128c-20.92032-0.22528-34.55488 6.58432-40.9344 20.62848-9.31328 20.62848-0.896 36.27008 28.89728 53.49888 16.81408 9.73824 24.07936 18.12992 24.07936 27.19744 0 19.03616-22.95808 25.83552-46.8224 13.81888a121.22624 121.22624 0 0 0-9.32352-4.52096c-0.91136 5.43232-0.4608 18.3552-0.4608 18.3552s7.28064 2.944 18.19648 5.21728c27.27936 5.43232 51.82976-7.24992 54.32832-27.8784 2.048-19.26656-5.00224-29.47072-31.59552-45.3376z m422.43584-23.57248c-9.55392 0-16.82944 3.85024-21.6064 11.33056l-3.8656 5.888v-15.4112h-16.36352v92.70784h16.37376v-29.46048c0-27.20768 0.2304-30.36672 4.096-37.632 5.21728-10.19392 14.31552-15.1808 22.96832-12.69248l5.90336 1.59232v-16.09728l-7.49568-0.22528h-0.01024z m-552.48384 23.1168v-59.15648H326.912v130.78016h69.35552v-15.4112H343.51616l-0.22528-56.21248z m381.27104 18.36544l-13.6448 35.13344-12.94848-35.35872-13.19424-39.22432h-16.81408a2657.96608 2657.96608 0 0 0 34.78016 92.70784c5.21728 0.2304 10.46528 0 15.6928 0l18.41152-46.01856 18.64704-46.91456h-16.14848c-0.22528 0.22528-7.27552 18.82112-14.78144 39.67488z m-343.07584-113.11104a8.69888 8.69888 0 0 0 6.59456-2.7136 8.704 8.704 0 0 0 2.72896-6.58432 8.68352 8.68352 0 0 0-2.72896-6.56384 9.472 9.472 0 0 0-6.59456-2.50368 8.41728 8.41728 0 0 0-6.59968 2.72896 9.04704 9.04704 0 0 0-2.72896 6.56896c0 2.7136 0.91136 4.98688 2.72896 6.56896a9.11872 9.11872 0 0 0 6.59456 2.49856z m-5.9136-15.1808a7.64416 7.64416 0 0 1 5.90848-2.27328c2.2784 0 4.32128 0.68096 5.9136 2.27328a8.1664 8.1664 0 0 1 2.49344 5.89312 8.23808 8.23808 0 0 1-2.49344 5.89312 8.05376 8.05376 0 0 1-5.90848 2.27328 8.07424 8.07424 0 0 1-5.9136-2.27328 8.18688 8.18688 0 0 1-2.50368-5.888c0.1024-2.2016 0.99328-4.29568 2.50368-5.89824z m3.87584 6.79424h1.1264c0.68096 0 1.60256 0.67072 2.048 2.03264l1.36192 2.944h2.048l-1.59232-3.16928c-0.6656-1.35168-1.36704-2.03264-2.048-2.26304a4.3264 4.3264 0 0 0 2.27328-1.13664c0.4608-0.45568 0.68608-1.35168 0.68608-2.03264a2.9184 2.9184 0 0 0-0.91136-2.27328c-0.6656-0.67072-1.8176-0.896-3.40992-0.896h-3.41504v11.77088h1.60768l0.21504-4.97664h0.01024z m0-5.44256h1.6896c1.2032 0 1.93536 0.26624 2.41664 0.50688 0.49664 0.26624 0.49664 0.77824 0.49664 1.792 0 1.52576-0.9728 2.304-2.67264 2.304h-1.9456v-4.60288h0.01536z m-272.15872 4.30592c0-4.08064-0.2304-7.24992-0.2304-9.07264 0.4608 2.048 0.91136 3.64032 1.36704 4.76672l15.9232 35.14368h2.72384l15.9232-35.58912c0.44032-0.90624 0.896-2.49856 1.34656-4.54656h0.2304c-0.2304 3.64032-0.45568 6.58432-0.45568 9.07264v31.06304h5.45792v-46.24896h-6.8096L128 651.22304c-0.4608 1.36704-1.36704 3.16928-2.2784 5.67296h-0.22528c-0.2304-1.36704-1.13664-3.18464-2.048-5.44768l-14.32576-32.41472h-7.29088v46.23872h5.22752l0.2304-31.03744v-0.01536z m53.88288 0.22528h4.77696v28.78976h-4.77696v-28.78976z m2.2784-10.64448a3.4304 3.4304 0 0 0 2.49856-0.91136c0.68096-0.67072 1.13664-1.36704 1.13664-2.48832 0-0.91136-0.22528-1.8176-1.13664-2.50368a3.41504 3.41504 0 0 0-2.50368-0.896 3.41504 3.41504 0 0 0-2.49856 0.896 3.64544 3.64544 0 0 0-1.13664 2.50368c0 1.12128 0.22528 1.80736 1.13664 2.48832a3.49184 3.49184 0 0 0 2.50368 0.91136z m35.6864 39.88992v-4.98688a13.90592 13.90592 0 0 1-8.18176 2.93888 10.46016 10.46016 0 0 1-8.17152-3.39456c-2.048-2.27328-3.18976-5.21728-3.18976-9.07264 0-4.08064 1.14176-7.24992 3.18464-9.51296a10.86464 10.86464 0 0 1 8.17152-3.39456c2.73408 0 5.46304 0.896 7.9616 2.48832v-5.6576a16.80384 16.80384 0 0 0-7.7312-1.60768c-5.21728 0-9.53856 1.60768-12.4928 5.00224-2.95936 3.16928-4.55168 7.7056-4.55168 13.13792 0 4.7616 1.36704 8.84224 4.32128 11.78624 2.944 3.18464 6.82496 4.7616 11.37152 4.7616 3.85536-0.22528 6.82496-0.90624 9.31328-2.48832z m13.42464-15.1808c0-3.85536 0.90624-6.8096 2.49856-9.07264 1.59232-1.8176 3.18464-2.944 5.45792-2.944 1.82272 0 3.18464 0.2304 4.096 1.1264v-5.43232a10.6496 10.6496 0 0 0-3.18464-0.45568 7.9616 7.9616 0 0 0-5.00224 1.80736 11.17696 11.17696 0 0 0-3.64032 5.67296h-0.22528v-6.79936h-5.2224v33.08544h5.2224v-16.98816z m30.464 17.44384c4.99712 0 9.09312-1.58208 12.04736-4.7616 2.944-3.1744 4.55168-7.48032 4.55168-12.68224 0-5.44768-1.36704-9.52832-4.096-12.71296-2.72896-3.15392-6.59456-4.52096-11.5968-4.52096-5.00224 0-9.09824 1.59232-12.04224 4.31104-3.18464 3.16928-4.77696 7.7056-4.77696 13.37344 0 4.97664 1.36704 9.05728 4.32128 12.23168 2.7136 3.17952 6.58432 4.7616 11.58656 4.7616z m-7.49568-26.74176a10.94656 10.94656 0 0 1 7.94624-3.1744c3.40992 0 5.9136 1.1264 7.9616 3.1744 1.8176 2.27328 2.95424 5.44256 2.95424 9.5232 0 4.08064-0.91136 7.24992-2.72896 9.28256-1.8176 2.2784-4.54656 3.39968-7.9616 3.39968a10.44992 10.44992 0 0 1-8.18688-3.39968c-2.048-2.27328-2.944-5.21728-2.944-9.28256-0.24064-4.08064 0.67072-7.26528 2.944-9.5232h0.01536z m47.0528 24.02304a8.83712 8.83712 0 0 0 0.68096-12.92288c-1.36704-1.35168-3.18464-2.48832-6.144-3.6096a28.88192 28.88192 0 0 1-4.98688-2.72896 4.2752 4.2752 0 0 1-1.36704-3.39968c0-1.36192 0.4608-2.49856 1.59232-3.18464 1.2288-0.94208 2.75968-1.42336 4.30592-1.35168 2.95936 0 5.23264 0.67072 7.50592 2.2784v-5.21728a14.65856 14.65856 0 0 0-7.05024-1.60768c-3.39456 0-6.3488 0.9216-8.3968 2.72896a8.10496 8.10496 0 0 0-3.18464 6.8096c0 2.48832 0.6656 4.52096 2.048 5.888 1.13152 1.36192 3.17952 2.48832 5.90848 3.62496 2.72896 1.13664 4.55168 2.27328 5.44768 3.16928a4.11648 4.11648 0 0 1 1.36192 3.18464c0 3.16928-2.048 4.74624-6.3488 4.74624a13.4656 13.4656 0 0 1-8.64768-3.16928v5.67296c2.27328 1.35168 5.00224 2.03264 8.192 2.03264 3.85024-0.22528 7.03488-1.12128 9.09312-2.944h-0.01536z m25.2416-31.72864c-5.00224 0-9.09824 1.59232-12.04224 4.30592-3.19488 3.16928-4.7872 7.7056-4.7872 13.37856 0 4.97664 1.36192 9.05728 4.32128 12.22656 2.95424 3.18464 6.81984 4.7616 11.8272 4.7616 5.00224 0 9.09312-1.57696 12.03712-4.7616 2.95936-3.16928 4.55168-7.48032 4.55168-12.68224 0-5.44256-1.36704-9.5232-4.08064-12.70784-2.95936-3.15904-6.82496-4.52096-11.8272-4.52096z m10.46016 17.2288c0 4.08064-0.91136 7.24992-2.72896 9.28256-1.8176 2.2784-4.54656 3.39968-7.95648 3.39968a10.44992 10.44992 0 0 1-8.192-3.39968c-2.048-2.27328-2.95424-5.21728-2.95424-9.28256 0-4.30592 1.13664-7.49056 3.18464-9.7536a10.96192 10.96192 0 0 1 7.95648-3.16928c3.18464 0 5.9136 1.13664 7.7312 3.16928 2.048 2.27328 2.94912 5.44768 2.94912 9.7536h0.01024z m14.31552 16.5376h5.23264v-28.54912h7.7312v-4.55168h-7.7312v-4.97664c0-4.53632 1.8176-7.02464 5.45792-7.02464 1.2032-0.0768 2.4064 0.24064 3.40992 0.91136v-4.7616c-0.91136-0.45568-2.27328-0.45568-3.8656-0.45568-2.944 0-5.2224 0.91136-7.05024 2.71872-2.27328 2.04288-3.40992 4.7616-3.40992 8.61184v5.44768h-5.6832v4.52096h5.6832l0.22528 28.1088z m21.83168-9.05728c0 6.33856 2.944 9.73824 8.64256 9.73824 2.03264 0 3.62496-0.2304 4.992-1.1264v-4.54656a5.5808 5.5808 0 0 1-3.39968 1.13664c-1.8176 0-2.95424-0.44032-3.88096-1.35168-0.6656-0.91136-1.1264-2.49856-1.1264-4.7616v-18.59584h8.40704v-4.52096h-8.40192v-9.7536c-1.82272 0.68096-3.6352 1.13664-5.23264 1.59232v7.93088h-5.6832v4.53632h5.6832v19.72224z m569.52832 60.96384a9.45664 9.45664 0 0 0-6.59456-2.48832 8.38144 8.38144 0 0 0-6.59456 2.7136 9.0112 9.0112 0 0 0-2.72896 6.5792 8.6528 8.6528 0 0 0 2.72896 6.56896c1.8176 1.6128 4.16768 2.49344 6.59456 2.48832a8.69376 8.69376 0 0 0 6.59456-2.7136 8.71424 8.71424 0 0 0 2.72896-6.56896 7.64416 7.64416 0 0 0-2.72896-6.5792z m-0.68096 12.4672a7.78752 7.78752 0 0 1-5.9136 2.27328 8.07936 8.07936 0 0 1-7.76192-4.9664 8.23808 8.23808 0 0 1-0.65536-3.19488c0-2.27328 0.68608-4.30592 2.2784-5.888a7.76704 7.76704 0 0 1 5.9136-2.27328c2.27328 0 4.31616 0.67072 5.90848 2.27328a8.192 8.192 0 0 1 2.50368 5.888c0 2.27328-0.68096 4.30592-2.27328 5.888z m-4.77696-5.43232c0.91136-0.22528 1.59232-0.68096 2.27328-1.13664 0.45568-0.45568 0.68096-1.36704 0.68096-2.03264a2.9184 2.9184 0 0 0-0.90624-2.2784c-0.68096-0.6656-1.82272-0.90624-3.40992-0.90624h-3.41504v11.78624h1.60768v-4.97664h1.12128c0.68608 0 1.36704 0.6656 2.048 2.03264l1.36704 2.944h2.04288l-1.59232-3.16928c-0.68096-1.36704-1.36192-2.03776-1.8176-2.2784v0.01536z m-1.01888-0.39936h-1.93536v-4.59264h1.69472c1.20832 0 1.94048 0.27136 2.42176 0.5376 0.49664 0.26624 0.49664 0.81408 0.49664 1.89952-0.256 1.61792-0.97792 2.15552-2.67776 2.15552z m-296.36096-92.9792h1.59232v-11.8016h3.8656v-1.59232h-9.32352v1.59232h3.8656v11.8016z m8.86784-8.8576v-2.7136c0 0.6656 0.2304 1.13664 0.45568 1.36192l4.55168 10.19392h0.6656l4.55168-10.19392c0.22528-0.22528 0.22528-0.68096 0.45568-1.36192v11.55584h1.60256v-13.37856h-1.8432l-4.096 9.29792c0 0.2304-0.45568 0.91136-0.67072 1.82272h-0.24064c0-0.45568-0.22528-0.91136-0.6656-1.59232l-4.096-9.29792h-2.048v13.37856h1.59232l-0.22528-9.07264h0.01024z"
    fill="#231F1F"></path>
</svg>
