<?xml version="1.0" standalone="no"?><!DOCTYPE svg PUBLIC "-//W3C//DTD SVG 1.1//EN" "http://www.w3.org/Graphics/SVG/1.1/DTD/svg11.dtd"><svg t="1731578390293" class="icon" viewBox="0 0 3085 1024" version="1.1" xmlns="http://www.w3.org/2000/svg" p-id="2540" xmlns:xlink="http://www.w3.org/1999/xlink" width="602.5390625" height="200"><path d="M3059.587879 832.91866c-14.535247 0-26.130781-11.595534-26.130782-26.130781 0-14.208612 11.595534-26.130781 26.130782-26.130782 14.208612 0 26.130781 11.595534 26.130781 26.130782 0 14.208612-11.922169 26.130781-26.130781 26.130781m0-47.198724c-11.595534 0-21.067943 9.472408-21.067943 21.067943s9.472408 21.067943 21.067943 21.067942 21.067943-9.472408 21.067942-21.067942-9.472408-21.067943-21.067942-21.067943m13.228708 34.786603h-6.042743l-5.226157-9.799043h-6.85933v9.799043h-5.552791v-28.74386h13.71866c6.042743 0 9.799043 3.919617 9.799044 9.472409 0 4.246252-2.613078 7.349282-6.042744 8.655821l6.206061 10.61563z m-10.288995-15.025199c2.123126 0 4.246252-1.306539 4.246252-4.246252 0-3.429665-1.796491-4.246252-4.246252-4.246252h-8.655822v8.655821h8.655822zM331.044338 778.044019h66.960128v182.425518h116.281977v58.467624H331.044338V778.044019z m252.488676 121.018182v-0.816587c0-69.083254 55.854545-125.427751 130.163956-125.427751s129.184051 55.364593 129.184051 124.447847v0.816587c0 69.083254-55.854545 125.427751-130.163956 125.427751s-129.184051-55.364593-129.184051-124.447847m191.407975 0v-0.816587c0-34.786603-24.824242-64.837002-61.897289-64.837002-36.419777 0-60.917384 29.560447-60.917384 64.34705v0.816587c0 34.786603 24.824242 64.837002 61.407336 64.837001 36.909729 0 61.407337-29.560447 61.407337-64.347049m149.925359 14.208612v-135.226794h67.776714v133.920255c0 34.786603 17.638278 51.118341 44.259011 51.118342S1081.161085 947.240829 1081.161085 913.760766v-135.716747h67.776714v133.593621c0 77.739075-44.259011 111.709091-112.852313 111.70909-68.266667-0.163317-111.219139-34.623285-111.219138-110.075917m326.308134-135.226794h92.764274c85.904944 0 136.043381 49.32185 136.043381 118.895056v0.816587c0 69.573206-50.628389 121.018182-137.34992 121.018182h-91.457735V778.044019z m93.907496 181.608932c39.849442 0 66.470175-21.88453 66.470175-60.917385v-0.816587c0-38.70622-26.620734-60.917384-66.470175-60.917384H1317.971292v122.324721h27.110686v0.326635z m231.910685-181.608932h192.714514v58.467624h-126.244338v41.155981h114.158852v55.364593h-114.158852v85.904944h-66.470176V778.044019z m285.478788 0h66.470176v182.425518h116.77193v58.467624h-183.405423V778.044019z m357.665072-1.796491h64.34705l102.563317 242.526316h-71.696332l-17.638277-42.952472h-92.764275l-17.148325 42.952472h-70.063158l102.4-242.526316z m58.794258 147.638915l-26.620733-68.266666-27.110686 68.266666h53.731419z m194.184371-145.842424h113.832216c36.909729 0 62.223923 9.472408 78.555662 26.130782 14.208612 13.71866 21.394577 32.173525 21.394578 56.18118v0.816587c0 36.909729-19.761404 61.407337-49.32185 73.819458l57.487719 84.108452h-77.249123l-48.505263-73.00287h-29.233812V1019.100478h-66.960127V778.044019z m110.729186 115.465391c22.701116 0 35.60319-11.105582 35.60319-28.417225v-0.816587c0-18.944817-13.71866-28.417225-36.093142-28.417225H2539.585327V893.346093l44.259011 0.163317z m199.247209-115.465391h193.694418v56.671133h-127.550877v36.419776h115.46539v52.751515h-115.46539v38.216268h129.184051v56.671133h-195.327592V778.044019zM185.038596 927.316108c-9.472408 21.067943-29.233812 36.093142-55.037958 36.093142-36.419777 0-61.407337-30.540351-61.407337-64.837001v-0.816587c0-34.786603 24.497608-64.347049 60.917385-64.34705 27.437321 0 48.505263 16.821691 57.161084 39.849442h70.389793c-11.105582-57.487719-61.897289-100.113557-127.060925-100.113556-74.146093 0.163317-130.000638 56.344498-130.000638 125.427751v0.816587C0 968.635407 55.037959 1024 129.184051 1024c63.530463 0 113.342265-41.155981 126.244338-96.193939l-70.389793-0.489953z" fill="#404041" p-id="2541"></path><path d="M2897.740351 393.758214l-184.22201-105.666348-31.84689-13.71866-753.546411 5.226156v382.489314h969.451993l0.163318-268.330462z" fill="#FFFFFF" p-id="2542"></path><path d="M2562.286443 626.812121c8.982456-30.866986 5.552791-59.284211-9.472408-80.352153-13.71866-19.271451-36.909729-30.540351-64.837002-31.84689l-528.495055-6.85933c-3.429665 0-6.369378-1.796491-8.16587-4.246252-1.796491-2.613078-2.123126-6.042743-1.306539-9.472408 1.796491-5.226156 6.85933-8.982456 12.412122-9.472409l533.23126-6.85933c63.04051-2.939713 131.797129-54.058054 155.804784-116.77193l30.540351-79.372248c1.306539-3.429665 1.796491-6.85933 0.816587-10.288996C2648.68134 115.955343 2510.02488 0 2344.257735 0c-152.865072 0-282.539075 98.807018-328.921212 235.666986-30.050399-22.374482-68.266667-34.296651-109.422647-30.540351-73.492823 7.349282-132.287081 66.143541-139.473047 139.473046-1.796491 18.944817-0.489952 37.399681 3.919618 54.548006-119.711643 3.429665-215.578947 101.256778-215.578948 221.948326 0 10.778947 0.816587 21.394577 2.123126 32.173524 0.816587 5.226156 5.226156 8.982456 10.288995 8.982457h975.494737c5.552791 0 10.778947-3.919617 12.412121-9.472409l7.185965-25.967464z" fill="#F38020" p-id="2543"></path><path d="M2730.666667 287.275279c-4.736204 0-9.799043 0-14.535248 0.489952-3.429665 0-6.369378 2.613078-7.675917 6.042743l-20.57799 71.696332c-8.982456 30.866986-5.552791 59.284211 9.472408 80.352153 13.71866 19.271451 36.909729 30.540351 64.837002 31.84689l112.525678 6.85933c3.429665 0 6.369378 1.796491 8.165869 4.246252 1.796491 2.613078 2.123126 6.369378 1.306539 9.472409-1.796491 5.226156-6.85933 8.982456-12.412121 9.472408l-117.261882 6.85933c-63.530463 2.939713-131.797129 54.058054-155.804785 116.77193l-8.655821 21.884529c-1.796491 4.246252 1.306539 8.655821 6.042743 8.655822H2998.507177c4.736204 0 8.982456-2.939713 10.288995-7.675917 6.85933-24.824242 10.778947-51.118341 10.778948-78.06571 0-159.23445-129.674003-288.908453-288.908453-288.908453" fill="#FAAE40" p-id="2544"></path></svg>