<?xml version="1.0" standalone="no"?><!DOCTYPE svg PUBLIC "-//W3C//DTD SVG 1.1//EN"
  "http://www.w3.org/Graphics/SVG/1.1/DTD/svg11.dtd">
<svg viewBox="0 0 1170 1024" version="1.1" xmlns="http://www.w3.org/2000/svg" p-id="9549"
     xmlns:xlink="http://www.w3.org/1999/xlink" width="22.8515625" height="20">
  <path
    d="M1067.154286 165.083429A167.570286 167.570286 0 0 0 920.064 72.338286c-56.246857-1.097143-102.4 32.548571-93.915429 54.930285a362.349714 362.349714 0 0 0 19.090286 40.009143c9.508571 14.628571 26.112 3.218286 32.109714 0a88.795429 88.795429 0 0 1 57.782858-10.678857 86.820571 86.820571 0 0 1 65.243428 53.833143A151.478857 151.478857 0 0 1 746.788571 355.474286a404.114286 404.114286 0 0 0-397.677714-59.172572c-72.265143 25.6-105.910857 51.2-77.312 110.372572a1254.107429 1254.107429 0 0 0 63.780572 122.660571c59.757714 106.130286 191.049143-49.005714 191.049142-49.005714-97.645714 156.013714-181.467429 118.345143-213.650285 64a863.085714 863.085714 0 0 1-51.712-106.130286C13.750857 533.065143 80.457143 948.589714 80.457143 948.589714l123.026286 0.512c31.158857-154.112 143.579429-147.748571 162.669714 0.512l93.915428 0.512c82.870857-300.763429 293.229714 1.097143 293.229715 1.097143l122.514285 0.512c-34.157714-205.312 68.754286-269.897143 133.558858-389.851428s127.561143-267.702857 57.782857-396.8z m-381.074286 402.285714a67.364571 67.364571 0 0 1-38.692571-86.381714s15.067429 5.339429 40.155428 13.897142a26.404571 26.404571 0 0 0-4.022857 18.651429 28.672 28.672 0 0 0 31.158857 26.112 29.696 29.696 0 0 0 25.6-26.112q15.067429 5.632 31.597714 11.190857a69.12 69.12 0 0 1-85.796571 42.496z"
    fill="#1976D2"></path>
</svg>
