<svg viewBox="0 0 1024 1024" version="1.1" xmlns="http://www.w3.org/2000/svg" width="24" height="24" fill="currentColor">
    <path d="M878.08 826.453333l-127.573333-356.693333c-8.96-23.466667-29.013333-37.973333-52.053334-37.973333-23.04 0-42.666667 14.506667-52.48 38.826666l-127.146666 355.84a32 32 0 1 0 60.16 21.76l26.453333-73.813333h185.6l26.453333 73.813333c4.693333 13.226667 17.066667 21.333333 30.293334 21.333334 3.413333 0 7.253333-0.426667 10.666666-1.706667a32 32 0 0 0 19.2-40.96l0.426667-0.426667z m-249.173333-116.48l69.973333-195.84 69.973333 195.84h-139.946666z m-108.8-375.04c-96.426667 152.32-183.466667 244.48-289.28 305.92a31.829333 31.829333 0 0 1-43.52-11.52 31.488 31.488 0 0 1 11.52-43.52c89.6-52.053333 162.986667-126.72 245.333333-250.453333H175.786667c-17.493333 0-32-14.506667-32-32s14.506667-32 32-32h160V186.88c0-17.493333 14.506667-32 32-32s32 14.506667 32 32v84.48h160c17.493333 0 32 14.506667 32 32s-14.506667 32-32 32h-40.106667l0.426667-0.426667z m1.706666 310.186667c-5.546667 0-11.093333-1.28-16.213333-4.266667-27.733333-16.213333-54.613333-34.133333-79.786667-52.906666a32 32 0 0 1 38.4-51.2c23.04 17.493333 48.213333 33.706667 73.813334 48.64a32.085333 32.085333 0 0 1-16.213334 59.733333z"></path>
</svg>