<?xml version="1.0" standalone="no"?><!DOCTYPE svg PUBLIC "-//W3C//DTD SVG 1.1//EN"
  "http://www.w3.org/Graphics/SVG/1.1/DTD/svg11.dtd">
<svg viewBox="0 0 1861 1024" version="1.1" xmlns="http://www.w3.org/2000/svg"
     xmlns:xlink="http://www.w3.org/1999/xlink" width="36.34765625" height="20">
  <path
    d="M1139.898182 432.872727h26.996363c10.705455 0 21.410909-3.258182 31.65091-4.654545s25.134545 10.24 21.410909 26.996363a72.145455 72.145455 0 0 1-40.494546 46.545455 139.636364 139.636364 0 0 1-74.472727 10.24c-3.723636 0-5.12 0-6.050909 4.654545-2.792727 25.134545-5.585455 49.803636-9.309091 74.938182a267.636364 267.636364 0 0 1-6.981818 33.512728 74.938182 74.938182 0 0 1-46.545455 46.545454 139.636364 139.636364 0 0 1-54.923636 11.170909 69.818182 69.818182 0 0 1-58.181818-31.185454 60.974545 60.974545 0 0 1-9.774546-28.858182c-2.327273-16.290909-3.723636-33.047273-5.12-49.803637s0-26.530909 0-40.02909v-5.585455a79.592727 79.592727 0 0 1-57.716363 5.585455 208.989091 208.989091 0 0 1-33.512728-8.843637 59.112727 59.112727 0 0 1-13.498182-8.378182c-4.189091 2.792727-8.378182 6.981818-13.498181 9.774546a39.098182 39.098182 0 0 1-46.545455-6.981818 133.585455 133.585455 0 0 1-31.185454-42.356364 558.545455 558.545455 0 0 1-43.752728-117.76c-7.447273-29.789091-14.429091-59.578182-20.014545-89.367273a205.265455 205.265455 0 0 1 0-75.403636 130.327273 130.327273 0 0 1 19.083636-52.596364 101.469091 101.469091 0 0 1 51.665455-40.494545A176.872727 176.872727 0 0 1 791.272727 93.090909a339.781818 339.781818 0 0 1 74.472728 14.429091 8.378182 8.378182 0 0 0 6.516363 0A128.930909 128.930909 0 0 1 939.287273 93.090909c13.963636 0 28.392727 3.258182 42.356363 4.654546a6.516364 6.516364 0 0 0 5.12 0 262.050909 262.050909 0 0 1 65.629091-11.17091 192.698182 192.698182 0 0 1 100.538182 20.014546 148.48 148.48 0 0 1 53.527273 46.545454 57.250909 57.250909 0 0 1 10.24 29.789091 222.021818 222.021818 0 0 1-4.189091 67.956364 561.803636 561.803636 0 0 1-60.043636 161.978182l-12.567273 22.341818z m-22.807273 9.309091l2.327273-4.654545a545.047273 545.047273 0 0 0 71.214545-162.443637 222.021818 222.021818 0 0 0 7.912728-85.643636 52.130909 52.130909 0 0 0-9.309091-28.858182 143.825455 143.825455 0 0 0-32.116364-30.72A169.890909 169.890909 0 0 0 1070.545455 102.4a240.174545 240.174545 0 0 0-76.8 9.774545 13.032727 13.032727 0 0 1-8.378182 0 232.727273 232.727273 0 0 0-46.545455-3.723636 104.261818 104.261818 0 0 0-59.578182 17.687273 6.050909 6.050909 0 0 1-7.447272 0 315.578182 315.578182 0 0 0-82.850909-16.756364 167.563636 167.563636 0 0 0-46.545455 4.189091 88.901818 88.901818 0 0 0-73.076364 68.887273 216.901818 216.901818 0 0 0-3.723636 93.090909 926.72 926.72 0 0 0 23.738182 101.934545 494.778182 494.778182 0 0 0 36.770909 93.090909 115.432727 115.432727 0 0 0 25.134545 32.581819 36.770909 36.770909 0 0 0 26.065455 10.24 40.494545 40.494545 0 0 0 26.996364-13.032728c9.774545-10.705455 19.083636-22.341818 28.858181-33.047272l20.945455-23.738182 32.581818 9.309091a41.890909 41.890909 0 0 1-28.392727 21.410909h-6.981818a62.836364 62.836364 0 0 0-25.6 9.309091 12.567273 12.567273 0 0 0-3.258182 18.152727 33.978182 33.978182 0 0 0 13.963636 11.636364 129.861818 129.861818 0 0 0 26.530909 6.516363 77.730909 77.730909 0 0 0 46.545455-8.378182 172.218182 172.218182 0 0 0 15.36-9.774545c0 26.996364 0 53.992727 2.327273 80.523636a142.429091 142.429091 0 0 0 9.30909 46.545455 58.647273 58.647273 0 0 0 56.32 35.84 117.76 117.76 0 0 0 43.287273-10.24 60.509091 60.509091 0 0 0 35.84-38.632727 372.363636 372.363636 0 0 0 13.032727-71.68c0-14.894545 3.723636-29.789091 5.12-46.545455 0-4.654545 2.792727-6.050909 6.981819-5.585454a128 128 0 0 0 37.701818 0 100.072727 100.072727 0 0 0 54.923636-20.945455 58.647273 58.647273 0 0 0 14.894546-15.36 12.567273 12.567273 0 0 0-8.378182-20.48 32.581818 32.581818 0 0 0-11.636364 0 168.494545 168.494545 0 0 1-46.545454 4.189091c-7.447273 5.585455-13.032727 3.723636-20.945455 2.792727z"
    ></path>
  <path
    d="M902.516364 438.458182a303.476364 303.476364 0 0 1 13.498181-34.909091A153.6 153.6 0 0 0 930.909091 325.818182a377.949091 377.949091 0 0 0-7.912727-51.2 41.890909 41.890909 0 0 0-48.872728-31.650909 111.709091 111.709091 0 0 0-42.356363 12.567272h-4.189091a100.538182 100.538182 0 0 1 0-13.032727 202.007273 202.007273 0 0 1 19.083636-63.767273 97.745455 97.745455 0 0 1 88.901818-56.32 155.927273 155.927273 0 0 1 81.92 18.618182 179.2 179.2 0 0 1 80.058182 93.090909c2.327273 5.585455 0 5.585455-4.189091 5.585455a232.727273 232.727273 0 0 0-31.185454 0 40.96 40.96 0 0 0-33.047273 41.890909 127.069091 127.069091 0 0 0 9.774545 46.545455 580.887273 580.887273 0 0 0 34.909091 70.283636c6.516364 12.101818 13.498182 23.272727 20.945455 34.909091l-4.189091 2.327273a30.254545 30.254545 0 0 0-18.618182 24.66909c-2.792727 27.927273-5.12 56.32-8.843636 84.247273a548.770909 548.770909 0 0 1-7.447273 60.509091 50.734545 50.734545 0 0 1-40.029091 41.425455 119.156364 119.156364 0 0 1-25.134545 4.654545 40.029091 40.029091 0 0 1-40.96-23.738182 95.883636 95.883636 0 0 1-8.378182-35.84 1078.923636 1078.923636 0 0 1 0-116.363636 32.581818 32.581818 0 0 0-15.825455-30.72 54.923636 54.923636 0 0 0-15.36-5.585455z"
    fill="#2F638F"></path>
  <path
    d="M837.818182 433.803636c-5.12 5.585455-10.24 10.705455-14.894546 16.290909s-19.549091 22.807273-29.789091 33.978182a53.527273 53.527273 0 0 1-10.705454 9.774546 16.756364 16.756364 0 0 1-20.945455 0 73.541818 73.541818 0 0 1-22.341818-26.996364 421.236364 421.236364 0 0 1-36.305454-90.298182 773.585455 773.585455 0 0 1-25.6-112.64 168.96 168.96 0 0 1 6.981818-80.523636 76.8 76.8 0 0 1 40.029091-46.545455 108.450909 108.450909 0 0 1 34.443636-9.774545 232.727273 232.727273 0 0 1 87.04 12.567273h6.981818c4.189091 0 3.258182 2.327273 0 5.12a186.181818 186.181818 0 0 0-19.549091 27.927272 193.629091 193.629091 0 0 0-22.341818 73.076364 430.545455 430.545455 0 0 0 0 54.923636 536.203636 536.203636 0 0 1-2.327273 54.923637 88.436364 88.436364 0 0 0 26.53091 74.938182 6.050909 6.050909 0 0 0 0 2.792727z m179.2-309.992727a64.232727 64.232727 0 0 1 11.636363-2.327273 322.56 322.56 0 0 1 42.356364 0 134.981818 134.981818 0 0 1 78.196364 26.530909 186.181818 186.181818 0 0 1 27.927272 26.53091 46.545455 46.545455 0 0 1 7.447273 28.392727 283.461818 283.461818 0 0 1-14.429091 89.832727A514.792727 514.792727 0 0 1 1112.436364 418.909091v2.792727h-2.792728v-3.258182l6.050909-13.963636a102.865455 102.865455 0 0 0 5.12-46.545455c0-18.152727-2.792727-36.305455-2.792727-54.458181s3.258182-24.203636 4.189091-36.305455A72.610909 72.610909 0 0 0 1117.090909 232.727273a283.461818 283.461818 0 0 0-24.669091-46.545455 201.541818 201.541818 0 0 0-64.232727-55.854545l-11.636364-6.516364z"
    fill="#2F638F"></path>
  <path
    d="M914.618182 338.850909a126.138182 126.138182 0 0 1-13.963637 57.250909 354.210909 354.210909 0 0 0-13.032727 34.909091 4.654545 4.654545 0 0 1-5.12 3.723636 56.32 56.32 0 0 1-46.545454-26.530909 74.938182 74.938182 0 0 1-12.101819-54.458181 398.894545 398.894545 0 0 0 0-57.716364c0-15.825455 0-18.618182 15.36-25.134546a186.181818 186.181818 0 0 1 31.65091-8.843636 36.770909 36.770909 0 0 1 15.825454 0 21.410909 21.410909 0 0 1 20.945455 17.221818 249.018182 249.018182 0 0 1 6.981818 59.578182zM884.363636 269.963636h-4.654545c-6.516364 0-9.309091 5.585455-6.516364 10.24a16.756364 16.756364 0 0 0 26.996364 4.654546c4.654545-4.189091 3.723636-8.843636 0-11.636364A40.96 40.96 0 0 0 884.363636 269.963636z m212.247273 133.585455a100.072727 100.072727 0 0 0-6.516364-12.101818c-10.705455-21.876364-21.410909-43.287273-31.650909-65.163637a98.210909 98.210909 0 0 1-8.843636-40.029091c0-17.221818 11.636364-25.134545 27.927273-26.530909h21.876363c5.12 0 6.050909 0 5.585455 6.516364l-2.792727 24.203636a175.476364 175.476364 0 0 0 0 49.338182 163.374545 163.374545 0 0 1 0 52.130909c0 3.723636-2.327273 7.912727-3.723637 12.101818z m-17.221818-139.636364a114.501818 114.501818 0 0 0-13.498182 4.189091c-4.654545 0-4.654545 6.050909 0 9.774546a14.429091 14.429091 0 0 0 19.549091 0c2.792727 0 6.050909-6.516364 5.12-9.309091s-9.309091-2.327273-13.498182-3.258182z m-208.989091 241.105455l-25.6-5.585455s-2.327273 0-3.723636-2.792727h3.723636l22.341818-5.585455a46.545455 46.545455 0 0 0 26.530909-18.152727 121.949091 121.949091 0 0 1 10.24-11.636363 9.774545 9.774545 0 0 1 15.825455 0 14.894545 14.894545 0 0 1 0 21.876363 59.112727 59.112727 0 0 1-49.803637 22.807273z m310.458182-46.545455l-3.723637 3.258182a80.989091 80.989091 0 0 1-33.512727 14.894546 129.396364 129.396364 0 0 1-42.356363 2.327272c-8.378182 0-9.309091-2.792727-8.378182-11.170909a16.756364 16.756364 0 0 1 14.894545-15.825454 10.24 10.24 0 0 1 5.12 0 69.352727 69.352727 0 0 0 43.287273 6.981818 222.487273 222.487273 0 0 0 24.669091-2.792727z"
    fill="#2F638F"></path>
  <path
    d="M390.050909 919.272727v-159.650909h60.509091a156.392727 156.392727 0 0 1 24.203636 0 51.2 51.2 0 0 1 20.014546 7.447273 41.425455 41.425455 0 0 1 12.567273 15.36 46.545455 46.545455 0 0 1 5.12 21.876364 50.269091 50.269091 0 0 1-13.032728 34.443636 62.836364 62.836364 0 0 1-46.545454 13.963636h-41.425455v65.163637zM411.461818 837.818182h41.425455a42.821818 42.821818 0 0 0 28.858182-7.912727 26.065455 26.065455 0 0 0 8.843636-21.41091 31.185455 31.185455 0 0 0-5.12-17.221818 23.272727 23.272727 0 0 0-13.498182-9.309091 89.367273 89.367273 0 0 0-19.549091 0h-40.96zM529.687273 861.556364a59.578182 59.578182 0 0 1 17.687272-46.545455 53.992727 53.992727 0 0 1 36.305455-12.567273 52.130909 52.130909 0 0 1 39.098182 15.36 60.043636 60.043636 0 0 1 15.36 43.287273 75.869091 75.869091 0 0 1-6.981818 35.374546 46.545455 46.545455 0 0 1-19.549091 20.014545 56.32 56.32 0 0 1-27.927273 6.981818 50.269091 50.269091 0 0 1-39.098182-15.825454 60.509091 60.509091 0 0 1-14.894545-46.08z m20.014545 0a46.545455 46.545455 0 0 0 9.774546 33.047272 30.72 30.72 0 0 0 24.203636 11.170909 31.650909 31.650909 0 0 0 24.669091-11.170909 53.061818 53.061818 0 0 0 9.309091-33.978181 46.545455 46.545455 0 0 0-9.774546-32.581819 31.650909 31.650909 0 0 0-46.545454 0 49.803636 49.803636 0 0 0-11.636364 33.512728zM651.636364 884.363636l19.549091-3.258181a26.530909 26.530909 0 0 0 9.30909 18.152727 30.254545 30.254545 0 0 0 20.945455 6.050909 31.185455 31.185455 0 0 0 20.014545-5.585455 17.221818 17.221818 0 0 0 6.516364-13.032727 11.170909 11.170909 0 0 0-6.050909-10.24 68.421818 68.421818 0 0 0-20.014545-6.516364 167.563636 167.563636 0 0 1-29.789091-9.774545 26.065455 26.065455 0 0 1-12.567273-10.705455 27.461818 27.461818 0 0 1-4.654546-15.825454 31.650909 31.650909 0 0 1 3.723637-14.429091 30.72 30.72 0 0 1 9.774545-10.705455 31.650909 31.650909 0 0 1 12.567273-5.585454 46.545455 46.545455 0 0 1 16.756364-2.327273 60.509091 60.509091 0 0 1 23.738181 3.723637 32.581818 32.581818 0 0 1 15.36 10.705454 41.425455 41.425455 0 0 1 6.981819 17.687273l-19.549091 2.792727a19.083636 19.083636 0 0 0-7.447273-13.963636 28.392727 28.392727 0 0 0-17.687273-5.12 29.323636 29.323636 0 0 0-19.083636 4.654545 12.101818 12.101818 0 0 0-6.050909 10.24 11.636364 11.636364 0 0 0 2.327273 6.981818 17.687273 17.687273 0 0 0 7.447272 5.12 139.636364 139.636364 0 0 0 17.687273 5.12 235.985455 235.985455 0 0 1 28.858182 9.309091 27.461818 27.461818 0 0 1 17.687273 26.996364 34.909091 34.909091 0 0 1-5.585455 18.618182 37.701818 37.701818 0 0 1-16.756364 13.498182 66.094545 66.094545 0 0 1-24.203636 4.654545 55.389091 55.389091 0 0 1-34.443636-9.309091A46.545455 46.545455 0 0 1 651.636364 884.363636zM815.476364 901.585455l2.792727 17.687272h-14.429091a32.581818 32.581818 0 0 1-16.756364-3.258182 19.083636 19.083636 0 0 1-8.378181-8.843636 76.8 76.8 0 0 1-2.327273-23.272727v-65.163637h-14.429091v-15.36h14.429091v-28.392727l19.549091-12.101818v40.494545h19.549091v15.36h-19.549091v67.956364a46.545455 46.545455 0 0 0 0 10.705455 12.567273 12.567273 0 0 0 3.258182 3.723636 15.36 15.36 0 0 0 6.981818 0zM831.301818 930.909091l19.083637 2.792727a17.221818 17.221818 0 0 0 6.516363 12.567273 40.494545 40.494545 0 0 0 40.96 0 24.669091 24.669091 0 0 0 10.24-14.894546 145.221818 145.221818 0 0 0 0-25.6 40.96 40.96 0 0 1-32.116363 15.36 42.821818 42.821818 0 0 1-36.77091-17.221818 66.094545 66.094545 0 0 1-13.498181-41.425454 83.781818 83.781818 0 0 1 6.050909-30.72 46.545455 46.545455 0 0 1 17.687272-21.410909 46.545455 46.545455 0 0 1 26.53091-7.447273 40.96 40.96 0 0 1 33.978181 16.290909v-13.963636H930.909091v100.072727a93.090909 93.090909 0 0 1-5.585455 38.632727 38.167273 38.167273 0 0 1-17.687272 17.687273 61.905455 61.905455 0 0 1-29.323637 6.516364 58.181818 58.181818 0 0 1-33.512727-9.309091 30.72 30.72 0 0 1-13.498182-27.927273z m16.290909-69.818182a50.734545 50.734545 0 0 0 8.843637 33.512727 28.392727 28.392727 0 0 0 22.807272 10.24 29.323636 29.323636 0 0 0 22.807273-10.24 49.338182 49.338182 0 0 0 8.843636-32.581818 46.545455 46.545455 0 0 0-9.30909-32.116363 28.858182 28.858182 0 0 0-22.807273-11.17091 29.323636 29.323636 0 0 0-22.341818 10.705455 46.545455 46.545455 0 0 0-8.843637 29.789091zM958.836364 919.272727v-115.898182h18.618181v17.687273a51.665455 51.665455 0 0 1 12.567273-16.290909 20.014545 20.014545 0 0 1 12.567273-3.723636 37.236364 37.236364 0 0 1 20.014545 6.050909l-6.516363 18.152727a29.789091 29.789091 0 0 0-14.429091-4.189091 20.48 20.48 0 0 0-11.636364 3.723637 23.738182 23.738182 0 0 0-7.447273 11.170909 87.04 87.04 0 0 0-3.258181 22.807272v60.509091zM1112.901818 884.363636l20.014546 2.327273a46.545455 46.545455 0 0 1-17.687273 27.927273 60.043636 60.043636 0 0 1-73.541818-6.050909 61.44 61.44 0 0 1-14.894546-43.752728 63.767273 63.767273 0 0 1 15.36-46.545454 50.269091 50.269091 0 0 1 39.098182-15.825455 46.545455 46.545455 0 0 1 37.701818 15.825455 61.905455 61.905455 0 0 1 14.894546 44.218182v5.12H1047.272727a42.356364 42.356364 0 0 0 10.705455 29.323636 31.185455 31.185455 0 0 0 24.203636 10.24 30.254545 30.254545 0 0 0 18.618182-5.585454 38.632727 38.632727 0 0 0 12.101818-17.221819z m-64.698182-31.650909h64.698182a38.167273 38.167273 0 0 0-7.447273-21.876363 29.323636 29.323636 0 0 0-24.203636-11.636364 31.650909 31.650909 0 0 0-22.807273 9.309091 37.236364 37.236364 0 0 0-10.24 21.876364zM1152.930909 868.072727h20.014546a46.545455 46.545455 0 0 0 6.516363 19.549091 38.167273 38.167273 0 0 0 16.290909 12.567273 58.181818 58.181818 0 0 0 24.669091 4.654545 53.061818 53.061818 0 0 0 21.410909-3.723636 27.461818 27.461818 0 0 0 13.498182-9.774545 21.410909 21.410909 0 0 0 4.654546-13.498182 20.945455 20.945455 0 0 0-4.189091-13.032728 39.098182 39.098182 0 0 0-14.429091-9.774545c-4.654545 0-13.963636-4.189091-28.858182-7.447273a153.134545 153.134545 0 0 1-30.72-10.24 41.890909 41.890909 0 0 1-17.221818-14.894545 37.236364 37.236364 0 0 1-5.585455-20.014546 39.563636 39.563636 0 0 1 6.981818-22.341818 43.752727 43.752727 0 0 1 20.014546-16.290909 89.367273 89.367273 0 0 1 60.974545 0 46.545455 46.545455 0 0 1 28.392728 41.890909h-20.014546a33.512727 33.512727 0 0 0-11.170909-23.272727 42.821818 42.821818 0 0 0-27.927273-7.447273 46.545455 46.545455 0 0 0-27.927272 6.981818 20.48 20.48 0 0 0-8.843637 16.756364 18.618182 18.618182 0 0 0 6.516364 14.429091 77.730909 77.730909 0 0 0 31.650909 11.170909 263.912727 263.912727 0 0 1 35.374545 10.24 46.545455 46.545455 0 0 1 20.48 16.290909 39.098182 39.098182 0 0 1 6.981819 22.807273 42.356364 42.356364 0 0 1-7.447273 24.203636 46.545455 46.545455 0 0 1-20.945455 17.221818 74.007273 74.007273 0 0 1-30.72 6.516364 93.090909 93.090909 0 0 1-36.305454-6.516364 49.338182 49.338182 0 0 1-23.272728-19.083636 53.992727 53.992727 0 0 1-8.843636-27.927273zM1430.341818 902.050909a124.741818 124.741818 0 0 0 27.461818 14.894546l-6.516363 14.894545a139.636364 139.636364 0 0 1-34.443637-19.549091 78.661818 78.661818 0 0 1-39.098181 9.774546 77.730909 77.730909 0 0 1-39.563637-10.705455 71.68 71.68 0 0 1-26.996363-29.323636A93.090909 93.090909 0 0 1 1303.272727 837.818182a93.090909 93.090909 0 0 1 9.774546-42.821818 68.421818 68.421818 0 0 1 27.461818-29.789091 80.523636 80.523636 0 0 1 39.563636-10.24 78.196364 78.196364 0 0 1 40.029091 10.705454 68.421818 68.421818 0 0 1 26.996364 29.323637 98.210909 98.210909 0 0 1 9.309091 42.821818 93.090909 93.090909 0 0 1-6.050909 35.374545 64.698182 64.698182 0 0 1-20.014546 28.858182z m-46.545454-26.996364a80.523636 80.523636 0 0 1 30.254545 15.36 65.163636 65.163636 0 0 0 18.618182-51.2 85.178182 85.178182 0 0 0-6.516364-33.978181 46.545455 46.545455 0 0 0-19.083636-22.341819 56.32 56.32 0 0 0-67.956364 7.912728 68.887273 68.887273 0 0 0-15.825454 46.545454 66.094545 66.094545 0 0 0 15.825454 46.545455 50.734545 50.734545 0 0 0 39.098182 16.756363 53.061818 53.061818 0 0 0 21.410909-4.18909 70.283636 70.283636 0 0 0-20.945454-9.309091zM1482.007273 919.272727v-159.650909h21.410909v139.636364H1582.545455v18.618182z"
    ></path>
</svg>
