<?xml version="1.0" standalone="no"?><!DOCTYPE svg PUBLIC "-//W3C//DTD SVG 1.1//EN"
  "http://www.w3.org/Graphics/SVG/1.1/DTD/svg11.dtd">
<svg viewBox="0 0 2263 1024" version="1.1" xmlns="http://www.w3.org/2000/svg" p-id="9928"
     xmlns:xlink="http://www.w3.org/1999/xlink" width="44.19921875" height="20">
  <path
    d="M861.884632 499.927579c-29.911579 0-54.272 8.838737-72.919579 26.570105-18.647579 17.785263-28.133053 40.96-28.133053 69.470316 0 14.713263 2.371368 28.186947 7.006316 40.528842 4.634947 12.395789 11.856842 23.767579 21.557895 34.115369 9.647158 10.347789 29.049263 24.414316 57.936842 42.307368 35.516632 21.665684 58.745263 39.235368 69.847579 52.978526 11.156211 13.689263 16.707368 28.025263 16.707368 43.061895 0 20.048842-6.629053 36.055579-20.210526 48.074105-13.581474 12.072421-31.797895 18.054737-54.325895 18.054737-23.713684 0-44.463158-8.353684-62.248421-25.007158-17.785263-16.707368-26.731789-38.750316-26.947369-66.344421h-11.048421v100.244211h11.048421c3.341474-9.485474 8.084211-14.336 14.174316-14.336 2.910316 0 9.808842 2.048 20.533895 5.820631 26.138947 9.323789 47.535158 13.797053 64.404211 13.797053a101.322105 101.322105 0 0 0 74.482526-30.881684c20.641684-20.641684 31.043368-45.541053 31.043368-74.644211a95.932632 95.932632 0 0 0-20.37221-60.146526c-13.473684-17.515789-39.720421-37.888-78.95579-61.278316-33.738105-20.318316-55.619368-36.810105-65.751579-49.690947a67.476211 67.476211 0 0 1-15.306105-42.684632c0-16.869053 6.197895-30.396632 18.432-40.528842 12.234105-10.132211 28.240842-15.090526 48.289684-15.090526 22.581895 0 41.391158 6.682947 56.266106 20.156631s23.444211 32.175158 25.977263 56.212211h11.048421V503.808h-10.24a26.300632 26.300632 0 0 1-3.503158 8.515368c-1.077895 1.293474-3.072 1.940211-6.036211 1.940211a74.374737 74.374737 0 0 1-19.024842-4.419368 169.445053 169.445053 0 0 0-53.733052-9.916632z m361.418105 0c-36.486737 0-69.632 8.623158-99.543579 25.815579a190.140632 190.140632 0 0 0-71.141053 71.356631 190.949053 190.949053 0 0 0-26.246737 97.010527c0 46.187789 15.090526 87.309474 45.594948 123.365052s67.045053 58.475789 109.406316 67.098948c9.701053 5.066105 23.552 18.108632 41.714526 39.181473 20.48 23.821474 37.726316 40.96 52.008421 51.2 14.228211 10.24 29.534316 17.785263 45.810526 22.743579 16.168421 4.904421 33.738105 7.383579 52.709053 7.383579 23.013053 0 43.546947-4.042105 61.709474-12.234105l-4.096-10.078316c-10.509474 3.772632-21.719579 5.605053-33.522527 5.605053-16.060632 0-32.282947-5.281684-48.505263-15.898947-16.222316-10.671158-36.540632-30.935579-60.739368-60.901053-11.371789-14.389895-19.240421-23.444211-23.65979-26.947368a191.488 191.488 0 0 0 114.256842-67.530106 187.715368 187.715368 0 0 0 44.624842-122.987789c0-54.595368-19.402105-100.513684-57.990736-137.970527-38.642526-37.402947-86.069895-56.212211-142.389895-56.21221z m225.603368 0l0.538948 11.856842c24.306526 0 37.941895 7.114105 40.96 21.557895 1.131789 5.12 1.616842 14.551579 1.724631 28.294737l-0.161684 261.658947c-0.215579 19.563789-3.018105 32.013474-8.353684 37.456842-5.389474 5.389474-14.443789 8.730947-27.540211 10.078316l-0.538947 11.856842h242.041263l6.197895-59.392h-11.048421c-3.179789 16.168421-10.401684 27.755789-21.935158 34.330947-11.533474 6.629053-31.959579 9.916632-61.44 9.916632h-22.905263c-26.570105 0-41.930105-9.593263-45.972211-28.941474a60.469895 60.469895 0 0 1-1.185684-12.395789l0.970105-264.623158c0-19.456 2.479158-32.552421 7.545263-38.965895 5.173895-6.359579 14.497684-9.916632 27.971369-10.832842l-0.592842-11.856842h-126.275369z m-221.722947 14.336c41.121684 0 74.698105 16.222316 100.675368 48.882526 25.923368 32.714105 38.804211 77.500632 38.804211 134.25179 0 53.786947-13.042526 96.794947-39.181474 129.185684-26.138947 32.336842-60.954947 48.505263-104.178526 48.505263-41.498947 0-75.237053-16.653474-101.052632-50.06821-25.869474-33.414737-38.642526-76.8-38.642526-130.15579 0-54.810947 12.934737-98.681263 39.019789-131.503158 26.031158-32.768 60.901053-49.044211 104.55579-49.04421z m556.732631 56.266105a16.869053 16.869053 0 0 0-13.797052 6.036211 16.276211 16.276211 0 0 0-3.287579 14.713263 25.977263 25.977263 0 0 0 9.485474 14.928842 25.492211 25.492211 0 0 0 16.491789 6.467368c5.712842 0 10.078316-2.209684 13.204211-6.467368a17.946947 17.946947 0 0 0 2.910315-14.928842 25.438316 25.438316 0 0 0-9.162105-14.713263 24.468211 24.468211 0 0 0-15.845053-6.036211z m159.636211 40.151579c-10.024421 38.588632-31.797895 59.499789-65.212632 62.841263l0.431158 11.102316h38.965895l-0.754526 130.694737c0.053895 22.366316 0.754526 37.241263 2.317473 44.840421 3.826526 18.108632 15.683368 27.324632 35.516632 27.324632 28.672 0 58.745263-17.461895 90.165895-52.33179l-9.485474-8.192c-22.689684 23.013053-42.792421 34.546526-60.362105 34.546526-10.778947 0-17.408-6.197895-19.941053-18.432a46.888421 46.888421 0 0 1-0.970105-10.455579l0.377263-147.994947h59.553684l-0.538947-17.677474H1954.762105v-56.266105h-11.317894z m230.238316 49.25979c-33.306947 0-60.362105 16.168421-81.434948 48.343579-21.018947 32.175158-27.486316 67.799579-19.240421 107.034947 4.850526 23.013053 14.551579 40.798316 29.318737 53.355789 14.767158 12.557474 33.468632 18.863158 55.834948 18.863158 20.857263 0 49.906526-5.335579 62.086736-15.952842 12.234105-10.617263 23.552-27.809684 33.953685-51.415579l-8.353685-8.730947c-16.599579 30.612211-50.122105 45.972211-75.452631 45.97221-34.762105 0-56.050526-19.078737-64.026948-57.020631a138.671158 138.671158 0 0 1-2.317473-15.521684c41.391158-6.521263 72.757895-18.108632 93.884631-34.92379 21.180632-16.707368 42.361263-34.492632 38.426948-53.355789a43.223579 43.223579 0 0 0-17.084632-26.516211c-9.000421-6.629053-32.498526-10.132211-45.594947-10.13221z m-364.112842 1.401263l-71.733895 16.491789v12.773053l24.791579-3.125895c12.072421 0 19.132632 5.497263 21.342316 16.330105 0.754526 3.610947 1.239579 8.730947 1.347368 15.090527l-0.754526 117.382737c-0.215579 16.222316-1.994105 25.707789-5.605053 28.56421-3.664842 2.802526-13.312 4.203789-28.941474 4.20379l-0.377263 11.102315h113.879579l-0.215579-11.102315c-15.791158 0-26.031158-1.239579-30.61221-3.664843-4.527158-2.425263-7.599158-6.844632-8.946527-13.581473a143.791158 143.791158 0 0 1-1.562947-24.791579l0.431158-165.672421h-13.042526z m345.896421 21.719579c6.952421 0 13.635368 2.694737 20.37221 7.922526a30.72 30.72 0 0 1 12.018527 17.461895c6.467368 31.258947-21.180632 52.816842-83.429053 64.781473a109.945263 109.945263 0 0 1 12.234105-62.032842c9.970526-18.647579 22.959158-28.133053 38.804211-28.133052zM701.116632 51.846737H83.536842A75.452632 75.452632 0 0 0 8.138105 127.191579v681.175579a75.452632 75.452632 0 0 0 75.237053 75.290947h406.851368C485.591579 681.175579 554.792421 288.336842 701.116632 51.846737z"
    fill="#1195DB"></path>
  <path
    d="M678.696421 73.835789H83.429053a53.355789 53.355789 0 0 0-53.301895 53.301895v631.484632c134.790737-51.738947 337.165474-96.363789 477.022316-94.31579 28.133053-147.024842 110.753684-435.146105 171.546947-590.470737z"
    fill="#1195DB"></path>
  <path
    d="M845.177263 29.588211c-42.253474-37.726316-93.507368-22.635789-144.060631 22.258526-7.491368 6.682947-14.982737 14.066526-22.420211 21.989052-86.501053 91.728842-166.750316 261.658947-191.703579 391.437474 9.701053 19.671579 17.300211 44.840421 22.312421 64.026948a603.567158 603.567158 0 0 1 6.736842 28.833684s-0.754526-2.910316-3.98821-12.180211a779.156211 779.156211 0 0 0-2.048-5.928421 68.069053 68.069053 0 0 0-1.347369-3.341474c-5.658947-13.096421-21.234526-40.744421-28.079158-52.816842a1320.421053 1320.421053 0 0 0-15.413894 48.181895c19.779368 36.271158 31.905684 98.465684 31.905684 98.465684s-1.077895-4.042105-6.036211-18.108631c-4.419368-12.395789-26.462316-51.038316-31.690105-60.038737-8.946526 32.929684-12.449684 55.188211-9.269895 60.631579 6.197895 10.455579 12.126316 28.564211 17.300211 48.613052 11.749053 45.109895 19.941053 100.028632 19.941053 100.028632l0.646736 9.269895c-1.616842 37.888-0.646737 77.177263 2.317474 112.64 3.880421 47.050105 11.210105 87.417263 20.48 109.029052l6.359579-3.449263c-13.689263-42.576842-19.240421-98.357895-16.815158-162.762105 3.664842-98.304 26.300632-216.926316 68.122947-340.614737 70.656-186.583579 168.690526-336.303158 258.425264-407.821474-81.758316 73.835789-192.404211 312.912842-225.603369 401.408-37.079579 99.166316-63.380211 192.188632-79.225263 281.330527 27.378526-83.536842 115.765895-119.484632 115.765895-119.484632s43.331368-53.463579 93.992421-129.886316c-30.342737 6.952421-80.195368 18.809263-96.848842 25.815579-24.629895 10.347789-31.258947 13.850947-31.258948 13.850948s79.764211-48.559158 148.156632-70.602106c94.100211-148.210526 196.608-358.723368 93.345684-450.775578"
    fill="#1195DB"></path>
</svg>
