<svg viewBox="0 0 1024 1024" version="1.1" xmlns="http://www.w3.org/2000/svg"
     width="80" height="80" opacity="0.3">
  <path
    d="M697.6 352H320c-83.2 0-147.2 64-147.2 153.6v32c0 83.2 64 153.6 147.2 153.6h377.6c83.2 0 147.2-64 147.2-153.6v-32c0-76.8-64-153.6-147.2-153.6z m0 0"
    fill="#FFF"></path>
  <path
    d="M902.4 102.4H121.6c-64 0-121.6 57.6-121.6 128v582.4c0 70.4 51.2 128 121.6 128h780.8c64 0 121.6-57.6 121.6-128V230.4c0-70.4-51.2-128-121.6-128z m38.4 428.8c0 134.4-108.8 249.6-243.2 249.6H320c-134.4 0-243.2-108.8-243.2-249.6v-25.6C76.8 371.2 185.6 256 320 256h377.6c134.4 0 243.2 108.8 243.2 249.6v25.6z m0 0"
    fill="#FFF"></path>
</svg>
