<svg viewBox="0 0 1024 1024" version="1.1" xmlns="http://www.w3.org/2000/svg"
      width="80" height="80" opacity="0.3">
  <path
    d="M319.954 276.676c1.354-11.251 2.486-21.565 3.849-31.847 6.155-46.437 20.451-89.979 45.014-130.147 31.055-50.787 76.4-78.374 134.897-86.45 52.797-7.289 103.654-1.384 152.628 19.65 28.728 12.337 53.011 31.638 77.418 50.631 25.385 19.754 47.137 42.87 63.819 70.541 9.105 15.103 18.734 29.916 27.202 45.366 5.103 9.312 8.431 19.598 13.079 30.694-4.261 0-6.476 0.02-8.691-0.003-18.963-0.209-38.02-1.66-56.736 2.562-52.023 11.733-78.932 55.701-66.556 108.571 9.016 38.52 21.404 75.813 39.923 110.949 19.972 37.894 39.306 76.127 59.582 113.854 5.43 10.105 13.09 19.055 20.082 28.265 5.78 7.615 5.842 8.193-2.962 11.648-16.449 6.455-28.492 17.27-33.534 34.637-1.735 5.979-3.335 12.195-3.628 18.368-2.965 62.631-12.384 124.579-19.932 186.703-3.285 27.04-9.14 53.793-14.42 80.559-4.973 25.2-19.957 43.452-41.807 56.225-32.891 19.226-67.966 28.03-105.874 19.804-27.142-5.89-45.423-22.209-54.192-48.985-9.644-29.445-15.03-59.741-15.475-90.545-0.82-56.743-0.043-113.508-0.4-170.261-0.082-12.835-0.985-25.871-3.425-38.441-5.5-28.335-15.178-43.265-52.551-51.619-4.025-0.9-8.195-1.149-13.18-1.818 1.387-4.726 2.366-9.343 4.076-13.669 10.725-27.142 21.591-54.226 32.453-81.312 15.365-38.313 20.155-78.139 15.926-118.965a1588.77 1588.77 0 0 0-10.79-82.923c-5.995-38.146-31.374-61.961-70.696-68.219-28.999-4.616-56.131 2.149-82.64 12.973-8.244 3.366-16.301 7.187-24.492 10.685-2.199 0.941-4.576 1.463-7.967 2.519z"
    fill="#FFF"></path>
  <path
    d="M375.222 53.46c-0.443 0.839-0.606 1.399-0.96 1.783-36.556 39.448-57.014 87.132-71.281 138.139-11.841 42.332-14.536 85.463-13.302 129.114 0.562 19.917 0.818 39.89 0.008 59.788-1.122 27.478-3.635 54.896-5.08 82.365-1.247 23.706-2.307 47.604 5.047 70.59 8.829 27.598 23.846 51.517 45.736 70.803 2.775 2.446 2.999 4.522 0.614 7.174-24.98 27.762-49.791 55.68-75.012 83.221-7.92 8.647-16.42 16.94-25.575 24.242-13.24 10.56-26.393 10.73-40.531 1.466-5.355-3.509-10.376-7.71-14.938-12.216-16.66-16.462-28.702-36.235-39.395-56.839-20.96-40.391-36.019-83.087-48.085-126.829-14.513-52.605-29.27-105.169-42.319-158.146-11.912-48.36-18.821-97.6-17.892-147.63 0.557-29.949 4.317-59.449 15.113-87.592 20.617-53.748 60.226-85.622 115.591-98.648 43.593-10.256 87.448-9.2 131.068-0.565 25.261 5.001 50.17 11.79 75.228 17.814 1.979 0.474 3.879 1.27 5.965 1.966zM677.138 19.915c12.666-1.988 25.268-4.713 38.01-5.833 45.728-4.019 91.001-1.822 135.179 12.002 42.75 13.377 80.042 35.736 112.412 66.82 16.833 16.164 25.852 35.607 29.795 58.082 7.195 41.007 3.381 81.523-7.517 121.172-12.2 44.385-24.599 88.862-40.132 132.144-15.92 44.362-35.468 87.454-59.206 128.407-9.986 17.229-20.129 34.366-30.119 51.592-1.486 2.561-3.254 4.844-6.053 2.677-0.941-0.729-0.598-4.23 0.225-5.959 15.706-33.057 25.425-67.215 21.734-104.41-2.563-25.857-4.167-51.813-6.021-77.737-1.891-26.456-0.086-52.785 4.471-78.834 8.326-47.597 1.697-92.238-22.883-134.362-26.433-45.3-60.989-83.475-99.446-118.614-17.753-16.222-38.063-28.105-59.482-38.474-3.236-1.566-6.352-3.386-9.479-5.165-0.604-0.344-1.008-1.04-1.503-1.574 0.004-0.646 0.009-1.29 0.015-1.934z"
    fill="#FFF"></path>
  <path
    d="M483.674 418.697c2.967 42.959-8.896 82.521-27.24 120.728-6.798 14.159-12.914 28.687-18.521 43.359-2.597 6.795-3.53 14.294-4.652 21.56-0.869 5.626-2.314 7.581-8.143 6.563-45.601-7.952-81.493-29.101-99.438-74.148-6.826-17.135-9.036-35.156-9.874-53.444-1.012-22.13 2.027-43.908 4.932-65.741 0.944-7.103 0.834-14.394 0.669-21.586a5463.404 5463.404 0 0 0-2.146-72.858c-0.146-4.036 1.045-6.667 4.226-9.116 20.482-15.771 44.038-24.289 69.046-29.148 9.274-1.802 18.769-2.581 28.198-3.463 9.925-0.928 19.156 2.1 28.051 6.083 10.11 4.525 16.456 12.378 19.851 22.902 10.829 33.559 14.743 68.104 15.038 103.187 0.017 1.706 0.003 3.415 0.003 5.122z m-65.989-120.575c-10.608 1.227-16.613 5.808-16.684 13.82-0.097 11.053 12.447 25.614 23.328 27.68 14 2.659 23.111-4.99 31.292-14.434 7.49-8.646 6.549-14.161-4.123-17.969-10.957-3.911-22.517-6.135-33.813-9.097zM841.983 280.463c-2.052 18.359-3.61 36.484-6.187 54.462-4.446 31.025-3.605 61.815-0.159 92.954 3.037 27.448 3.397 55.244 3.878 82.904 0.244 14.072-5.835 26.858-12.551 39.093-0.525-0.223-1.02-0.268-1.15-0.51-21.164-39.382-42.883-78.481-63.24-118.277-13.962-27.294-23.645-56.333-25.607-87.254-0.616-9.725-0.235-19.889 1.934-29.337 4.937-21.508 20.535-31.813 41.369-35.091 19.06-2.998 38.192-2.18 57.296-0.237 1.44 0.148 2.828 0.814 4.417 1.293z m-45.885 10.043c-6.218 0.516-10.92 0.251-15.23 1.425-5.918 1.61-11.938 3.644-17.162 6.758-4.102 2.445-6.464 6.986-3.821 12.293 5.259 10.563 19.187 16.247 32.827 13.407 12.281-2.558 20.285-12.279 20.896-24.977 0.178-3.693-1.276-5.958-4.637-6.696-4.778-1.048-9.647-1.673-12.873-2.21zM390.833 743.662c-15.972 0.846-31.254-2.489-46.193-7.8-1.069-0.38-2.268-0.626-3.141-1.285-2.161-1.638-4.168-3.479-6.238-5.237 2.375-1.156 4.636-2.814 7.144-3.388 15.861-3.626 31.798-6.921 47.67-10.501 21.287-4.802 37.788-16.852 50.978-33.915 6.369-8.24 12.867-16.388 19.552-24.371 2.029-2.424 4.699-4.446 7.395-6.147 5.518-3.483 10.728-2.963 15.74 1.124 0.586 0.478 1.136 1.004 1.688 1.523 19.336 18.182 19.807 32.266 0.682 50.451-8.752 8.323-18.645 15.464-28.166 22.958-16.875 13.279-37.013 15.504-57.442 16.564-3.214 0.168-6.446 0.024-9.669 0.024zM991.603 654.422c-5.556 5.209-9.819 9.982-14.83 13.771-19.142 14.476-41.299 22.117-64.425 27.21-26.438 5.821-53.107 8.84-80.186 5.269-0.753-0.099-1.513-0.16-2.256-0.307-12.149-2.423-14.459-5.241-13.899-17.621 0.18-3.963 0.638-7.964 1.482-11.835 3.352-15.356 13.668-24.293 29.516-25.416 2.24-0.159 5.052 0.681 6.822 2.057 16.684 12.973 36.141 16.988 56.359 15.462 26.04-1.966 51.939-5.792 77.901-8.802 0.541-0.064 1.102 0.057 3.516 0.212z"
    fill="#FFF"></path>
</svg>
