<svg viewBox="0 0 1024 1024" version="1.1" xmlns="http://www.w3.org/2000/svg"
     width="80" height="80" opacity="0.3">
  <path
    d="M955.21356 86.213258v520.862096q0 46.863229-22.22051 93.189802a440.102436 440.102436 0 0 1-58.220057 89.926345 645.743683 645.743683 0 0 1-82.210085 82.427649A894.46255 894.46255 0 0 1 698.807441 941.97847a717.699263 717.699263 0 0 1-92.435581 50.61983Q561.495713 1012.730198 527.657299 1020.228895l-10.660623 1.871048-9.775864-1.871048q-34.665156-7.527705-80.440567-27.630595a780.212578 780.212578 0 0 1-95.104363-50.61983 894.912181 894.912181 0 0 1-96.873881-69.330311 670.981076 670.981076 0 0 1-84.835354-82.427649q-37.333938-43.599773-60.395694-89.926346T66.422171 607.075354V86.213258l36.434675-5.642153L511.702625 0l416.83762 80.571105z m-443.380397-10.805666l-4.931445-1.015297L156.014919 137.268215v328.637281h355.818244zM865.606307 465.905496H511.833163v467.762039a485.428215 485.428215 0 0 0 74.261756-25.237393 662.452578 662.452578 0 0 0 79.149689-40.176771 709.866969 709.866969 0 0 0 75.277054-51.504589 449.02255 449.02255 0 0 0 64.03626-60.845326 300.992181 300.992181 0 0 0 44.44102-67.459263 163.810992 163.810992 0 0 0 16.62187-71.070822z"
    fill="#FFF"></path>
</svg>
