<svg fill="none" height="48" viewBox="0 0 146 48" width="146" xmlns="http://www.w3.org/2000/svg" xmlns:xlink="http://www.w3.org/1999/xlink"><linearGradient id="a" gradientUnits="userSpaceOnUse" x1="1" x2="31" y1="17" y2="47"><stop offset="0" stop-color="#6b57ff"/><stop offset=".499" stop-color="#ff45ed"/><stop offset="1" stop-color="#dd1265"/></linearGradient><path d="m91.977 9.01h-6.4l-12.37 13.59v-13.59h-5.2v29.96h5.2v-14.3l12.46 14.3h6.59l-13.44-15.52 13.16-14.45zm8.14 2.69h-4.71v3.55c0 .53-.16.96-.49 1.29s-.76.5-1.31.5h-2.4l-.02 4.39h3.85l.02 11.71c0 1.11.26 2.11.78 3 .52.88 1.25 1.58 2.18 2.08s1.99.75 3.16.75h4.73v-4.39h-3.72c-.6 0-1.1-.2-1.49-.59s-.59-.89-.59-1.49l-.02-11.06h5.82l.02-4.39h-5.82v-5.35zm24.53 6.34c-1.75-1-3.71-1.5-5.86-1.5s-4.13.5-5.9 1.5c-1.76 1-3.14 2.37-4.14 4.12s-1.5 3.7-1.5 5.85.5 4.11 1.51 5.85 2.39 3.12 4.14 4.12 3.71 1.5 5.86 1.5 4.13-.5 5.89-1.5c1.75-1 3.14-2.37 4.14-4.12s1.51-3.7 1.51-5.85-.5-4.11-1.51-5.85a10.99 10.99 0 0 0 -4.14-4.12zm-.4 13.59c-.52 1.06-1.26 1.88-2.21 2.46-.96.58-2.05.88-3.27.88s-2.32-.29-3.26-.88-1.68-1.41-2.2-2.46c-.52-1.06-.78-2.26-.78-3.62s.26-2.58.78-3.64 1.26-1.88 2.2-2.46c.95-.58 2.04-.88 3.26-.88s2.31.3 3.26.89 1.69 1.41 2.21 2.46c.53 1.05.79 2.26.79 3.63s-.26 2.56-.78 3.62zm20.89-14.73c-1.56 0-2.92.4-4.09 1.21-.83.57-1.53 1.33-2.1 2.26v-3.32h-5.01v21.92h5.05v-11.83c0-1.06.22-1.97.67-2.74s1.09-1.36 1.93-1.78c.83-.41 1.82-.62 2.94-.62h1.41v-5.09h-.81z" fill="#000"/><path d="m48 31.998-16.004 16.002-31.996-32.004 16.002-15.996 31.997 31.998z" fill="url(#a)"/><path d="m32.01 15.996h-16.002v16.002h16.002z" fill="#000"/></svg>