<svg viewBox="0 0 1024 1024" version="1.1" xmlns="http://www.w3.org/2000/svg"
     width="80" height="80">
  <path
    d="M791.296 469.1968s-47.7696 10.6496-80.0768 13.6192c-32.3584 2.9696-69.2736 7.5264-78.4896 2.8672-9.216-4.6592-39.9872-20.1216-39.9872-20.1216s3.0208 16.9472 12.2368 29.2864c9.216 12.3392 9.1648 27.7504-9.2672 18.432-18.432-9.2672-70.7072-35.584-70.7072-35.584s4.5568 29.2352-6.2464 27.6992-43.0592-21.6576-61.44-54.016-50.6368-52.48-49.152-40.1408-13.8752 12.288-21.5552-3.1232-42.9568-44.7488-89.1392-44.8512-89.344 32.1024-94.0032 41.3184 9.0624 58.5216 2.9184 55.3984c-6.144-3.072-12.1856-52.3776-29.1328-41.6256-16.9472 10.752-44.8 66.048-37.2224 96.8704s1.3312 81.5616 30.464 123.2384 75.3152 41.7792 86.0672 43.3152c10.752 1.5872 24.6272 4.6592 13.824 10.8032-10.8032 6.144-27.8016 32.256 10.7008 32.3584s110.848-5.888 133.9392-5.7856c23.0912 0.0512 19.968 13.9264-0.0512 23.0912-20.0192 9.1648-26.2144 21.504 10.7008 24.6784 36.9152 3.1744 60.1088-19.8656 80.0768-21.3504 20.0192-1.4848 32.3072 4.7104 33.8432 9.3184 1.536 4.608 9.216 12.3392 32.3584-10.7008 23.1424-23.04 41.6256-29.1328 41.6256-21.4528s10.6496 47.7696 26.112 24.6784 51.0464-86.0672 50.944-55.296 13.7728 33.8944 23.04 23.1424 13.9264-35.3792 24.6784-26.112c10.752 9.2672 26.112 16.9984 29.2864-12.2368 3.1744-29.2352 18.5856-36.9152 33.9968-59.9552s37.0176-19.9168 49.3568-36.8128c12.3904-16.8448 32.7168-126.1056-59.6992-110.9504z"
    fill="#FFF" opacity="0.3"></path>
  <path
    fill="#FFF"
    d="M309.248 561.8176s126.0544 63.4368 266.1888 37.632c140.1344-25.8048 229.632-104.0896 260.7104-219.4432 21.8624-127.6928 22.6304-125.3888 36.5056-122.2656s15.3088 38.5024 9.0624 73.9328c0 0-27.3408 150.016-137.6768 250.5216-160.4608 142.7456-434.176 43.52-468.0192 26.4704-33.792-16.9984-19.8656-60.0576 33.2288-46.848z"
  ></path>
</svg>
