<svg viewBox="0 0 1024 1024" version="1.1" xmlns="http://www.w3.org/2000/svg" width="80" height="80" opacity="0.3">
  <path
    d="M518 200c-6 0-12-6-30-42 0 0 0-6-6-6l-6-12c-18-36-24-78-30-84l-6-6-6-6c-90 24-198 66-204 114 0 18 6 30 24 48 36 24 66 60 84 96l6 6c6 18 12 42 12 60 6 96-60 204-180 294-78 60-108 114-90 162 42 114 330 156 402 156 12 0 24 0 24-6 138-228 102-408 90-456 36-12 192-60 330-78 6 0 12-6 12-18 0-30-114-174-426-222z m-240-42l12-12 18 18c-12 0-18-6-30-6z m360 114c18 6 66 18 96 30-30 6-78 24-114 42 6-24 12-54 18-72z m-78-12c-18 12-42 24-60 30 0-18 0-30-6-48 0 6 66 18 66 18z m36 24c-6 18-12 36-30 66-12-6-24-12-42-24l72-42z m-102 84l30 18-42 24c0-12 6-30 12-42z m6 78c-12 18-30 36-42 54 0-12-6-24-6-30 12 0 30-12 48-24z m54 150c-18 12-42 24-66 36 6-24 6-48 6-66l60 30z m-30-54l42-12v42c-12-12-30-24-42-30z m-126-162v-48c12 6 24 6 36 12l-36 36z m42 12c-6 12-12 30-18 42-6-6-12-6-18-12 12-6 36-30 36-30z m-24 114c0 6 6 12 6 18 0 0-36 18-54 24 24-18 42-30 48-42z m-54-282l54 6-36 30-18-36z m84 342c0 12 0 42-6 66-12-6-24-24-36-48l42-18z m18 138c18 6 48 24 72 30-36 18-78 36-108 48l36-78z m-6-522l6 12-18-6c-6 0 12-6 12-6z m-6 66c6 12 6 24 6 54-12-6-30-12-48-18l42-36z m-30-168c6 18 12 36 12 42-18 0-60-6-84-12 24-6 54-18 72-30z m-84 66c24 6 54 12 78 18l-36 24h-6c-12-18-24-30-36-42z m36 468c6 12 18 30 42 48-12 6-42 24-84 36 18-36 36-60 42-84z m36 96c-6 24-18 54-36 84-12-6-42-24-60-48 42-12 78-24 96-36z m-90-90c-6 18-24 48-36 72 0-12-6-24-6-48 12-6 24-18 42-24z m-96 48c0 12 6 36 18 60-36 12-78 24-102 30 6-24 30-60 84-90z m-90 126c24 0 60-12 96-18-12 24-36 54-54 78-36-24-42-48-42-60z m138-18c12 12 30 24 54 42l-114 42c-6 0 60-84 60-84z m24 138c-12 0-48-12-72-24l114-30c0-6-42 54-42 54z m96-66c12 6 48 18 84 24-42 12-96 36-132 42 24-30 42-48 48-66z m96 102c-18 0-66-6-102-12 30-6 78-18 120-36 0 18-12 36-18 48z m36-102c-36-6-78-18-102-30 42-18 96-42 126-54-6 36-12 66-24 84z m36-144c-24-6-48-24-66-36 24-12 60-30 78-42 0 36-6 66-12 78z m-42-210c30-36 54-60 60-72 30 18 42 30 54 36-24 6-78 24-114 36z m108-108c42-18 96-36 126-48-18 24-42 66-78 102-12-18-30-42-48-54z m108 48c18-24 54-66 66-96 36 24 72 54 96 78-36 0-114 6-162 18z"
    fill="#FFF"></path>
</svg>
