<svg viewBox="0 0 1316 1024" version="1.1" xmlns="http://www.w3.org/2000/svg"
     width="80" height="80" opacity="0.3">
  <path
    d="M472.64835 823.109862l5.119152 6.728028c-46.291757-32.323786-96.240052-92.14473-113.060121-117.740489-13.163533-20.257215-29.544818-51.191517-49.216987-93.022299-2.413314 10.89648-3.656537 22.889921-3.656537 36.126585 0 25.888281-2.340184 45.341058-7.313074 58.797113-6.801159 17.990162-20.110953 28.301596-37.808592 25.230105l-3.656537-1.02383c-37.296677-15.503717-64.062527-52.215347-81.175119-109.037931-14.041102-51.922824-13.748579-106.770878 0.585046-164.3979 8.848819-41.172606 9.287604-70.498032 2.267053-87.17184-23.913751-29.983603-43.512789-69.035417-59.089637-117.228574-21.061653-65.525142-35.175885-91.340292-69.839855-130.904021C26.331454 95.970931 9.657646 73.15414 2.783357 51.726834-3.213364 33.224757 0.15065 16.624079 16.093151 7.117083c13.89484-8.263773 35.102754-8.995081 66.256449-3.144621 30.71491 7.239943 54.043616 17.039462 76.129099 30.568648 8.117512 4.97289 31.153695 20.695999 30.934302 20.622869 15.576847 10.165173 27.058373 14.918671 43.366528 16.746939l9.214473 0.950699 9.068211 1.023831c13.89484 1.462615 22.524267 2.486445 31.592479 3.875929 44.170966 6.435505 81.467643 18.721469 132.512898 45.926103 95.947529 51.118386 194.015849 145.968954 258.444029 262.173697 14.553017 26.327066 26.400197 52.800393 37.735461 82.637735a1225.305521 1225.305521 0 0 1 19.087123 54.409269l5.631067 16.308155c10.89648 30.788041 19.306515 49.50951 29.983603 64.647572 12.139703 17.185724 26.912112 28.74038 47.388718 36.126585 101.651726 36.784761 151.161236 64.42818 210.324004 121.982072 11.262134 10.750219 18.575208 19.379646 22.451136 26.985242 5.850459 11.189003 5.338544 22.81679-4.02219 31.007433-6.069851 5.265413-13.675448 7.386205-24.352536 8.410035-6.362374 0.511915-11.84718 0.658177-28.155335 0.658177-23.401836 0-31.519348 0.073131-41.903913 0.804438a319.435065 319.435065 0 0 0-48.412548 7.605597l-19.672169 4.241582c3.437145 3.510275 8.117512 7.751858 14.187363 13.017272 20.110953 17.405116 64.940096 54.116746 112.621337 78.981197 62.161128 32.543179 86.367402 44.024704 153.50142 65.671403a1467.88018 1467.88018 0 0 1-10.603957-1.828268c52.069086 10.823349 107.721578 16.088762 166.884345 15.86937-144.506339 17.8439-283.381611 13.163533-416.625816-14.187363-181.656754-37.296677-360.53454-125.638608-427.083512-176.098818zM222.175572 165.22574l68.011586 100.189111a69.620463 69.620463 0 0 0 18.502077-48.266287c0-35.541539-24.352536-64.35505-54.409269-64.35505a48.851333 48.851333 0 0 0-32.104394 12.432226z"
    fill="#FFF"></path>
</svg>
