<?xml version="1.0" standalone="no"?><!DOCTYPE svg PUBLIC "-//W3C//DTD SVG 1.1//EN" "http://www.w3.org/Graphics/SVG/1.1/DTD/svg11.dtd"><svg t="1731555853719" class="icon" viewBox="0 0 3981 1024" version="1.1" xmlns="http://www.w3.org/2000/svg" p-id="4142" xmlns:xlink="http://www.w3.org/1999/xlink" width="777.5390625" height="200"><path d="M933.117037 60.306247c-13.706804 33.739825-32.685456 66.425281-54.827216 95.947627C682.177088-47.239445 358.485641-52.511293 156.046691 143.60144S-52.718477 663.40562 143.394256 865.84457c6.326217 7.380587 13.706804 13.706804 21.087391 20.033021l18.978652 16.869913c215.091385 181.35156 537.728462 153.937952 719.080021-61.153433C972.128709 759.353247 1014.303491 656.025033 1021.684077 548.479341c14.761173-127.578713-24.250499-292.060361-88.56704-488.173094zM238.287514 891.149439c-14.761173 18.978652-42.174781 21.087391-61.153432 6.326217s-21.087391-42.174781-6.326218-61.153433 42.174781-21.087391 61.153433-6.326217c17.924282 14.761173 21.087391 42.174781 6.326217 61.153433zM929.953928 738.265857C804.483954 905.910612 534.565353 848.974658 362.703119 857.409614c0 0-30.576716 2.108739-61.153433 6.326217 0 0 11.598065-5.271848 26.359239-10.543695 121.252496-42.174781 178.188451-50.609738 251.994318-88.567041 138.122409-70.642759 276.244818-225.63508 303.658426-385.899249-52.718477 153.937952-212.982646 286.788513-358.485642 340.561359-100.165106 36.902934-280.462296 72.751498-280.462295 72.751498l-7.380587-4.217478c-122.306866-60.099063-126.524344-325.800186 97.001997-411.204118 98.056367-37.957303 190.840885-16.869913 297.332208-42.174781C744.38489 308.083087 875.126712 223.733525 927.845189 113.024724c59.044694 178.188451 130.741822 454.433269 2.108739 625.241133zM1311.635699 712.960988c-13.706804-8.434956-22.14176-23.19613-21.087391-39.011673 0-25.304869 20.033021-46.392259 45.33789-46.392259h1.05437c8.434956 0 16.869913 2.108739 24.250499 6.326217 42.174781 29.522347 91.730149 45.33789 142.339887 47.446629 48.500999 0 76.968976-21.087391 76.968976-53.772846v-2.108739c0-39.011673-52.718477-51.664107-110.708801-69.58839-72.751498-21.087391-154.992321-50.609738-154.992322-145.502995v-2.108739c0-93.838888 78.023345-150.774843 176.079712-150.774843 54.827216 1.05437 107.545692 14.761173 156.046691 40.066042 16.869913 8.434956 27.413608 24.250499 27.413608 43.229151 0 25.304869-21.087391 46.392259-46.392259 46.392259h-1.05437c-7.380587 0-14.761173-2.108739-22.14176-5.271847-35.848564-20.033021-74.860237-31.631086-115.980649-33.739826-44.28352 0-69.588389 21.087391-69.588389 48.500999v2.108739c0 36.902934 53.772846 51.664107 111.763171 70.642759 72.751498 22.14176 153.937952 55.881585 153.937951 144.448626v2.108739c0 104.382584-81.186454 156.046691-183.460298 156.046691-67.47965-1.05437-133.904931-21.087391-189.786516-59.044694zM1727.057295 315.463674c-1.05437-30.576716 24.250499-55.881585 54.827215-56.935955h1.05437c31.631086 0 56.935955 25.304869 56.935955 56.935955v33.739825c36.902934-51.664107 88.567041-92.784519 168.699125-92.784519 115.980649 0 229.852558 91.730149 229.852558 257.266166v2.108739c0 164.481647-112.81754 257.266166-229.852558 257.266166-82.240824 0-133.904931-41.120412-168.699125-87.512671v175.025342c0 31.631086-25.304869 56.935955-56.935955 56.935955-30.576716 0-55.881585-25.304869-55.881585-55.881585V315.463674z m397.497314 200.330211v-2.108739c0-95.947627-64.316542-158.15543-141.285518-158.15543s-144.448626 64.316542-144.448626 158.15543v2.108739c0 94.893258 67.47965 158.15543 144.448626 158.15543s141.285517-60.099063 141.285518-158.15543zM2282.710039 315.463674c-1.05437-30.576716 24.250499-55.881585 54.827215-56.935955h1.05437c31.631086 0 56.935955 25.304869 56.935955 56.935955v27.413608c5.271848-42.174781 74.860237-84.349563 124.415604-84.349563 28.467977-2.108739 53.772846 18.978652 55.881586 47.446629v8.434956c0 27.413608-18.978652 50.609738-45.33789 54.827216-81.186454 13.706804-136.01367 84.349563-136.01367 182.405929v163.427278c0 31.631086-25.304869 55.881585-56.935955 55.881585-30.576716 0-55.881585-24.250499-55.881585-54.827216v-1.054369l1.05437-399.606053zM2621.162659 316.518043c-1.05437-30.576716 24.250499-55.881585 54.827215-56.935954h1.05437c31.631086 0 56.935955 25.304869 56.935955 56.935954v399.606053c0 31.631086-25.304869 55.881585-56.935955 55.881586s-55.881585-25.304869-55.881585-55.881586V316.518043zM2791.970523 316.518043c-1.05437-30.576716 24.250499-55.881585 54.827216-56.935954h1.054369c31.631086 0 56.935955 25.304869 56.935955 56.935954v23.19613c33.739825-52.718477 92.784519-83.295193 154.992321-81.186454 111.76317 0 176.079712 74.860237 176.079712 189.786516v266.755492c1.05437 30.576716-23.19613 54.827216-53.772846 55.881585h-2.108739c-30.576716 1.05437-55.881585-24.250499-56.935955-54.827216V483.10843c0-76.968976-37.957303-121.252496-106.491323-121.252497-65.370911 0-111.76317 46.392259-111.76317 123.361236v230.906927c0 31.631086-25.304869 56.935955-56.935955 56.935955s-56.935955-25.304869-56.935955-56.935955l1.05437-399.606053zM3735.631255 257.47335c-31.631086 0-56.935955 25.304869-56.935955 56.935954V348.149129c-36.902934-51.664107-88.567041-92.784519-168.699125-92.784518-115.980649 0-229.852558 91.730149-229.852558 257.266166v2.108739c0 164.481647 112.81754 257.266166 229.852558 257.266166 82.240824 0 133.904931-41.120412 168.699125-86.458302-5.271848 89.62141-60.099063 136.01367-156.046691 136.01367-52.718477 0-105.436953-12.652434-151.829213-39.011673-6.326217-3.163109-12.652434-4.217478-20.033021-4.217478-26.359238 0-47.446629 20.033021-48.500998 46.392259 0 20.033021 12.652434 39.011673 31.631086 45.33789 60.099063 29.522347 125.469974 44.28352 191.895255 44.283521 89.62141 0 159.209799-21.087391 203.49332-66.425281 41.120412-41.120412 63.262172-103.328214 63.262172-186.623407V315.463674c1.05437-31.631086-24.250499-56.935955-55.881586-57.990324h-1.054369z m-199.275842 416.475965c-78.023345 0-141.285517-61.153433-141.285517-159.209799v-2.108739c0-95.947627 64.316542-158.15543 141.285517-158.15543s144.448626 64.316542 144.448626 158.15543v2.108739c1.05437 94.893258-66.425281 159.209799-144.448626 159.209799zM2735.034568 122.514049c0 31.631086-25.304869 56.935955-56.935955 56.935955s-56.935955-25.304869-56.935954-56.935955 25.304869-56.935955 56.935954-56.935954c30.576716-1.05437 55.881585 24.250499 56.935955 54.827215v2.108739zM3922.254662 376.617107c-31.631086 0-57.990324-26.359238-57.990324-57.990324s26.359238-57.990324 57.990324-57.990325 57.990324 26.359238 57.990324 57.990325-26.359238 57.990324-57.990324 57.990324z m0-107.545693c-27.413608 0-49.555368 22.14176-49.555368 49.555369s22.14176 49.555368 49.555368 49.555368 49.555368-22.14176 49.555368-49.555368-21.087391-49.555368-48.500998-49.555369h-1.05437z m15.815543 82.240824l-16.869912-26.359238h-11.598065v26.359238h-9.489326V284.886957h27.413608c11.598065-1.05437 21.087391 8.434956 22.14176 20.033022 0 9.489326-7.380587 17.924282-16.869913 20.033021l17.924283 26.359238h-12.652435z m-11.598065-57.990324h-16.869912V316.518043h17.924282c6.326217 0 11.598065-5.271848 11.598065-11.598064s-5.271848-11.598065-12.652435-11.598065zM902.54032 841.594071C972.128709 759.353247 1014.303491 656.025033 1021.684077 548.479341" fill="#6DB33F" p-id="4143"></path><path d="M929.953928 738.265857C804.483954 905.910612 534.565353 848.974658 362.703119 857.409614c0 0-30.576716 2.108739-61.153433 6.326217 0 0 11.598065-5.271848 26.359239-10.543695 121.252496-42.174781 178.188451-50.609738 251.994318-88.567041 138.122409-70.642759 276.244818-225.63508 303.658426-385.899249-52.718477 153.937952-212.982646 286.788513-358.485642 340.561359-100.165106 36.902934-280.462296 72.751498-280.462295 72.751498l-7.380587-4.217478c-122.306866-60.099063-126.524344-325.800186 97.001997-411.204118 98.056367-37.957303 190.840885-16.869913 297.332208-42.174781C744.38489 308.083087 875.126712 223.733525 927.845189 113.024724c59.044694 178.188451 130.741822 454.433269 2.108739 625.241133zM238.287514 891.149439c-14.761173 18.978652-42.174781 21.087391-61.153432 6.326217s-21.087391-42.174781-6.326218-61.153433 42.174781-21.087391 61.153433-6.326217c17.924282 14.761173 21.087391 42.174781 6.326217 61.153433z" fill="#FFFFFF" p-id="4144"></path></svg>