<svg class="icon" viewBox="0 0 1024 1024" version="1.1" xmlns="http://www.w3.org/2000/svg"
     width="80" height="80" opacity="0.3">
  <path
    d="M924.699468 22.27204c-44.007631-39.231609-97.226161-23.453679-149.805046 23.197821a371.420992 371.420992 0 0 0-23.32575 22.814033c-89.934199 95.39251-173.386654 272.062679-199.31363 406.985299 10.106404 20.468665 17.995368 46.608857 23.197821 66.565806a556.235984 556.235984 0 0 1 6.993461 29.978066s-0.810218-3.027657-4.093733-12.622344l-2.132153-6.225885a72.024117 72.024117 0 0 0-1.407221-3.411445c-5.884741-13.645777-22.089101-42.429838-29.253134-54.966895-6.097957 18.038011-11.513624 34.882017-16.033788 50.14823 20.639238 37.696459 33.176295 102.343327 33.176295 102.343328s-1.066076-4.221662-6.268529-18.84823c-4.562807-12.920845-27.462126-53.047958-32.920437-62.429429-9.253543 34.285015-12.963488 57.397549-9.63733 63.026432 6.481744 10.916622 12.622344 29.764851 17.995369 50.574661 12.195913 46.907358 20.681881 104.04905 20.68188 104.04905l0.724932 9.552043a955.630819 955.630819 0 0 0 2.388011 117.18311c4.05109 48.868939 11.641553 90.829703 21.321527 113.302592l6.609673-3.582016c-14.24278-44.263489-20.042235-102.300684-17.483652-169.164992 3.837875-102.258041 27.37684-225.581751 70.830112-354.107912 73.47398-194.025891 175.390877-349.715678 268.651234-424.085163-84.987605 76.757496-200.081205 325.366495-234.536792 417.390203-38.54932 103.025616-65.883517 199.740061-82.343736 292.403415 28.400273-86.863899 120.296053-124.176571 120.296053-124.17657s45.073707-55.606541 97.737878-135.007906c-31.555859 7.206676-83.367169 19.530518-100.722892 26.82248-25.585832 10.703406-32.494006 14.370709-32.494006 14.370709s82.940738-50.489375 154.069351-73.346051C925.4244 336.935129 1032.032032 118.048337 924.699468 22.27204m-792.009425 23.155178A78.548504 78.548504 0 0 0 54.44004 123.719863v708.215826a78.463218 78.463218 0 0 0 78.250003 78.207359h401.612274a978.785997 978.785997 0 0 1-2.217439-115.434744c-0.255858-2.643869-0.469074-6.01267-0.682289-8.528611a1151.788864 1151.788864 0 0 0-20.170164-101.40518c-5.159809-20.042235-11.72684-38.293462-15.735287-45.073707-4.946594-8.400681-4.179019-13.219346-4.136376-18.421799 0-5.117166 0.639646-10.447548 1.577793-16.460219a425.57767 425.57767 0 0 1 9.978475-44.56199l9.253542-1.194006c-0.724932-1.492507-0.597003-2.771798-1.321934-4.136376l-1.748366-16.247003a1398.692141 1398.692141 0 0 1 16.289647-50.915805l8.52861-0.810218c-0.341144-0.682289-0.426431-1.620436-0.767575-2.260082l-1.833651-13.475205c26.865123-139.869214 110.317578-317.392244 204.686655-417.518133 2.814442-2.942371 5.671526-5.458311 8.443324-8.272752z"
    fill="#FFF"></path>
</svg>
