<?xml version="1.0" standalone="no"?><!DOCTYPE svg PUBLIC "-//W3C//DTD SVG 1.1//EN" "http://www.w3.org/Graphics/SVG/1.1/DTD/svg11.dtd"><svg t="1731555879940" class="icon" viewBox="0 0 1024 1024" version="1.1" xmlns="http://www.w3.org/2000/svg" p-id="7740" xmlns:xlink="http://www.w3.org/1999/xlink" width="200" height="200"><path d="M0 126.886957C0 56.765217 63.777391 0 142.469565 0h739.06087c79.026087 0 142.469565 56.765217 142.469565 126.886957v82.365217h-149.147826l-117.982609 169.182609-117.982608-169.182609h-184.765218l-162.504348 356.173913L135.791304 209.252174H0z m1024 138.017391v491.965217l-135.791304-193.669565-91.269566 131.33913 60.104348 111.304348h166.956522v91.269565c0 70.121739-63.443478 126.886957-142.469565 126.886957H142.469565c-78.692174 0-142.469565-56.765217-142.469565-126.886957V256l244.869565 554.295652h57.878261a138.017391 138.017391 0 0 1 89.043478-133.565217l153.6-336.139131 122.434783 169.182609-138.017391 191.443478a138.017391 138.017391 0 0 1 48.973913 104.626087h60.104348z" fill="#782A91" p-id="7741"></path><path d="M525.356522 805.843478a84.591304 84.591304 0 1 1 0-2.226087zM0 209.252174h135.791304l155.826087 356.173913 162.504348-356.173913h184.765218l117.982608 169.182609 117.982609-169.182609h149.147826v55.652174L638.886957 805.843478h-60.104348a138.017391 138.017391 0 0 0-48.973913-104.626087l138.017391-191.443478-122.434783-169.182609-153.6 336.139131a138.017391 138.017391 0 0 0-89.043478 133.565217h-57.878261L0 256z m796.93913 485.286956l91.269566-131.33913 135.791304 193.669565v48.973913h-166.956522z" fill="#FFFFFF" p-id="7742"></path></svg>